<svg xmlns="http://www.w3.org/2000/svg" viewBox="0 0 699.49 528.6"><defs><style>.cls-1{fill:#a98c64;}.cls-1,.cls-2,.cls-3{stroke:#000;stroke-miterlimit:10;stroke-width:3px;}.cls-2{fill:#d8b891;}.cls-3{fill:none;}</style></defs><title>empty box</title><g id="Layer_2" data-name="Layer 2"><g id="Layer_3" data-name="Layer 3"><polygon class="cls-1" points="579.38 469.97 2.58 468.72 118.17 265.79 694.98 267.05 579.38 469.97"/><polygon class="cls-2" points="118.17 265.79 119.69 49.89 694.98 45.45 695.5 267.36 118.17 265.79"/><polygon class="cls-2" points="63.16 234.39 63.16 3.76 119.69 49.89 118.17 265.79 63.16 234.39"/><polygon class="cls-2" points="695.5 267.36 655.48 235.27 655.48 3.76 694.98 45.45 695.5 267.36"/><polygon class="cls-2" points="63.16 3.76 655.48 3.76 655.48 45.45 119.69 49.89 63.16 3.76"/><polygon class="cls-1" points="2.58 468.72 118.17 265.79 118.17 324.34 36.37 469.75 2.58 468.72"/><polygon class="cls-3" points="580.6 468.72 36.37 469.75 119.56 323.72 696.37 324.97 580.6 468.72"/><polyline class="cls-2" points="580.6 527.1 580.6 468.72 695.5 267.36 695.5 327.3 580.6 527.1"/><rect class="cls-2" x="2.58" y="468.72" width="578.02" height="58.38"/></g></g></svg>