<svg xmlns="http://www.w3.org/2000/svg" viewBox="0 0 699.49 528.6"><defs><style>.cls-1{fill:#a98c64;}.cls-1,.cls-10,.cls-2,.cls-9{stroke:#000;stroke-miterlimit:10;stroke-width:3px;}.cls-2{fill:#d19f59;}.cls-3{fill:#ff4fa2;}.cls-4{fill:#fdec06;}.cls-5{fill:#42b8ea;}.cls-6{fill:#2ba048;}.cls-7{fill:#e81e25;}.cls-8{fill:#fff;}.cls-9{fill:#d8b891;}.cls-10{fill:none;}</style></defs><title>1box</title><g id="Layer_2" data-name="Layer 2"><g id="Layer_3" data-name="Layer 3"><polygon class="cls-1" points="579.38 469.97 2.58 468.72 118.17 265.79 694.98 267.05 579.38 469.97"/><path class="cls-2" d="M414.77,445.25c-28.48,22.66-88.27,37.39-133.54,32.91s-58.88-26.5-30.4-49.16,88.27-37.39,133.54-32.91S443.25,422.59,414.77,445.25ZM348,425.06c-15.65-1.55-36.31,3.54-46.15,11.37s-5.14,15.44,10.5,17,36.31-3.54,46.15-11.37S363.61,426.61,348,425.06Z"/><path class="cls-2" d="M413.88,430.39c-28.48,22.66-88.27,37.39-133.54,32.9s-58.88-26.49-30.4-49.15,88.27-37.4,133.54-32.91S442.36,407.73,413.88,430.39Zm-66.8-20.2c-15.65-1.55-36.31,3.54-46.15,11.38s-5.14,15.43,10.5,17,36.31-3.54,46.15-11.37S362.73,411.75,347.08,410.19Z"/><path class="cls-3" d="M343.44,410.22c-.74.43.06.87,1.11.81a19.86,19.86,0,0,0,3.17-.6,5.06,5.06,0,0,1,2.86-.06.75.75,0,0,1,.31.43c.6,1.24,3.87,1.77,7.21,1.18,2.17-.39,4.65-1.19,6.3-.88,1.32.26,1.19,1.12.72,1.87-.78,1.2-2.16,2.42-2.69,3.61s0,2.41,2.32,2.68c1.71.2,4.14-.14,5.35.35,1.47.58.14,1.93-1.43,2.95a46.86,46.86,0,0,1-8.54,4.25c-2.91,1.12-6.49,2.35-7.06,3.77-.4,1,.94,1.78.3,2.79-1,1.51-5.36,2.51-8.86,2.94s-7.57.86-10,2.27c-1.56.91-1.87,2-3.37,2.92-2.46,1.51-7.22,2-10.14,1.56a14.46,14.46,0,0,1-6.21-2.76,13,13,0,0,0-7-2.31c-4.49-.21-10.44,1.29-14.37.64-.35-.06-.69-.15-.78-.31s.15-.42.41-.64c1.21-1.06,2.55-2.14,3-3.19s-.25-2.09-2.36-2.3c-1.58-.16-3.86.14-4.7-.41-.56-.36-.21-.95.21-1.48a27.77,27.77,0,0,1,8.34-6.55c3.13-1.74,7.17-3.65,7.05-5.4-.07-.88-1.16-1.66,0-2.59,1.4-1.14,4.76-1.45,7.4-1.69a73.21,73.21,0,0,0,14.54-2.84c1.33-.41,2.81-1,2.88-1.57,0-.23-.21-.44,0-.69a4.13,4.13,0,0,1,2.05-.72c5.87-1,11.42.18,11.9,2.47m-86,6.45c1-.16,1.34.37,1.22.8-.54,1.81-2.85,3.78-6.27,5.36-3.14,1.44-7,2.52-10.26,3.93s-5.74,3.5-4.18,4.72c.86.67,2.85.95,3.34,1.74.95,1.47-3.76,3.5-4.25,5.23-.27,1,.89,1.72,2.6,2.08a25.7,25.7,0,0,0,6.16.28c1.2-.05,2.71-.05,2.72.45,0,.16-.16.33-.34.51-1.55,1.46-4.38,2.78-6.22,4.22s-2.37,3.28.35,3.7c2.24.33,5.64-.46,7.93-.16,2.7.36,2.56,2,2.91,3.24.52,1.9,2.82,3.45,6.37,4.29l-.19.15a29.61,29.61,0,0,0,9-.49c3.24-.65,7.24-1.78,9.24-1.05a2.08,2.08,0,0,1,1.17,1.12,10.49,10.49,0,0,0,5,3.83,17.45,17.45,0,0,0,10.49.84c4.4-1,8.17-3.56,12.35-3.56a14,14,0,0,1,2.93.4,61,61,0,0,0,12.95,1.1c4.41-.06,9.51-.57,13.58-2.13,1.12-.43,2.12-.92,3.3-1.31,3.54-1.16,7.58-1,11.41-1.73,1.95-.35,3.82-.9,5.76-1.27a12.47,12.47,0,0,1,5.36-.15l-.31-.13c3.07-.12,6.64-1.21,8.37-2.56s2.11-3.14,5.24-4c2.34-.66,4.8-.34,7.25-.82a11.37,11.37,0,0,0,4.32-1.82,16.81,16.81,0,0,0,2.37-2.3,22.2,22.2,0,0,1,8-5.21l-.18.25c5-1.14,8.19-3.7,9.12-5.85s.23-4.12.71-6.24a2.08,2.08,0,0,1,1.33-1.51,16.42,16.42,0,0,1,3.63-.82c3.63-.62,7.07-2.16,8.33-3.73a3.25,3.25,0,0,0,.38-3.38,25.84,25.84,0,0,0-2.61-5.67c-.16-.26-.32-.53-.15-.83.48-.84,2.9-1.38,4.61-2,3.43-1.26,4.45-3.29,3.45-4.65s-3.52-2.22-5.75-3.16a2.86,2.86,0,0,1-1.41-.92c-.33-.64.49-1.46,1-2.21,1.31-2.05-.08-4-3.49-4.77-2.31-.55-5.49-.65-7-1.57s-1-2.29-2.54-3.13c-1.83-1-6.56-.75-9.67.56l.4-.44a40.81,40.81,0,0,1-8,2.21,8.85,8.85,0,0,1-2.5.18,2.4,2.4,0,0,1-1.19-.53l-5.23-3.79a6.14,6.14,0,0,0-2.94-1.31,8.67,8.67,0,0,0-4.86.74c-.88.5-1,1.1-1.83,1.62a10.08,10.08,0,0,1-4.71,1.13,21.18,21.18,0,0,1-4.28-.46,104.19,104.19,0,0,0-14-1.38,9.13,9.13,0,0,0-3,.25c-2.08.63-1.68,1.93-3.46,2.74l-9.67-.85-.58-.19a49.5,49.5,0,0,0-12.55-.46c-4.64.45-9.77,1.8-12.71,3.73-2.17,1.41-2.95,3-2.78,4.35.11.79.49,1.58-.33,2.45-1.1,1.16-4.09,2.06-6.77,2.42a70.89,70.89,0,0,1-7.76.37,29.78,29.78,0,0,0-7.89,1.08c-1.55.5-2.93,1.25-3.11,1.95-.09.35.12.66-.07,1-.44.79-2.56,1.42-4.39,1.74a28.37,28.37,0,0,0-5.35,1.17,7.71,7.71,0,0,0-3.18,2.55,21,21,0,0,1-7.47,4.58,12.49,12.49,0,0,0-2.66,1.24c-.92.71-.57,1.44.4,1.84a15,15,0,0,0,3.88.67"/><path d="M342.67,410.25c-.95,1.05,1,1.21,3,1,1.35-.17,3.54-.67,4.39-.33.28.11.31.47.53.64a5.81,5.81,0,0,0,2.82,1,16.38,16.38,0,0,0,3.76,0c.69-.08,1.36-.22,2.06-.36s1.25-.32,1.81-.38c1.62-.19,3.41.29,3.45,1,.05,1-1.95,2.41-2.56,3.43a2.26,2.26,0,0,0-.37,2,2.3,2.3,0,0,0,1.6,1.24c1.22.38,2.8.15,4.22.32,4.23.51,1.71,2.23-.9,3.75a52.06,52.06,0,0,1-7.21,3.35c-2.85,1.1-6.44,2.38-7,3.93-.31.88,1.16,1.82.33,2.7-1.65,1.76-6.18,2.34-9.52,2.76-3.12.4-6.72.92-9.07,2.27-1.43.82-1.71,1.69-2.85,2.53-2.35,1.73-6.73,2.2-9.66,1.75-4.27-.65-5.5-2.81-8.54-4-2.29-.92-5.16-1.19-9-.87-2.25.19-4.61.56-6.82.64-1.34.05-3.53.07-3.43-.67.06-.39,1.42-1.23,1.83-1.65,1.39-1.4,2.21-3,.15-3.87a11.43,11.43,0,0,0-2.81-.44c-1.68-.2-3.16-.62-2.93-1.52.18-.7,1.52-1.71,2.35-2.43,2.78-2.41,7.06-4.35,10.5-6.63a6.08,6.08,0,0,0,2.48-2.45,1.58,1.58,0,0,0,0-.94c0-.14-.12-.26-.16-.4-.24-.88-.7-1.08,1.47-1.95,2.65-1.06,5.2-1,8.17-1.4,2.34-.31,4.69-.73,7-1.25a40.78,40.78,0,0,0,6.58-1.89c1.53-.66,1.11-.9,1.82-1.55,1.59-1.47,6.34-1.22,8.38-.85,2.3.41,3.64,1.24,4,2.37.13.39,1.69,0,1.56-.38-.49-1.46-2.55-2.48-5.75-2.83-2-.22-6.82-.33-9,.81a2.87,2.87,0,0,0-.75.58c-1,1-.88,1.46-3.32,2.18a70,70,0,0,1-9.87,2.08c-3.26.46-8.16.45-10.89,2-1.06.58-1.28,1.19-1.21,1.74s.5.92.5,1.42c0,.95-1.26,2-2.77,2.9-3.81,2.35-7.94,4.36-10.66,6.9-1.38,1.28-4.05,3.53-1.14,4.09a25.45,25.45,0,0,0,3.1.15c2.14.13,3.18.71,3,1.7s-1.12,1.75-2.06,2.61c-.41.38-1.23.88-1.35,1.27-.43,1.39,4.25,1.1,6.71.88s4.78-.57,7-.63a13.39,13.39,0,0,1,8.43,2.23c2,1.27,4,2.82,8.19,3,3,.13,7-.49,9.41-1.9,1.94-1.14,2-2.5,4.66-3.53s5.91-1.18,8.64-1.57c3.4-.47,8-1.5,9.11-3.21.62-1-.46-1.59-.33-2.46.26-1.8,5.18-3.19,8.29-4.5,3.43-1.44,7.69-3.46,9.06-5.32,1.93-2.62-4-1.54-6.72-2.38-4.81-1.51,3.44-5.26,1.62-7.35-1.48-1.69-7.16.54-10.39.54-2.15,0-3.36-.52-4-1.27-.26-.31-.23-.47-.85-.64a4.54,4.54,0,0,0-1.86-.07c-.66.07-5.56,1.19-4.75.3.4-.44-1.13-.39-1.54.05Z"/><path d="M257.14,417.51c1.12,0,.17,1.59-.14,2a10.26,10.26,0,0,1-2.11,1.91,35.14,35.14,0,0,1-8,3.67c-3.43,1.22-6.9,2.46-8.91,4.15-1.48,1.24-1.8,2.45-.34,3.27s3.61,1.13,2.41,2.69a35.81,35.81,0,0,1-2.91,2.55c-1.39,1.4-1.16,2.58.89,3.31a14.92,14.92,0,0,0,4.25.64c.83,0,2.65-.17,3.28,0,.79.18,1.22,1,.92,1.35a12.11,12.11,0,0,1-2.29,1.49c-2.26,1.42-4.54,2.86-4.59,4.34,0,1.19,1.57,1.83,4.32,1.77,3.43-.08,6.86-.71,7.86.89.54.86.41,1.88.9,2.75a6.28,6.28,0,0,0,2.54,2.27c.44.24,3.12,1.35,3.41,1.13-.24.18-.12.37.25.4a30.75,30.75,0,0,0,6.42-.05c2.75-.31,5.32-1.13,8-1.49,4.57-.61,4.67,1.42,5.88,2.53a12.51,12.51,0,0,0,3.12,2.06A17.49,17.49,0,0,0,291,462.7c3.9-.23,6.8-1.63,10.09-2.81a14.18,14.18,0,0,1,8.79-.57,57.46,57.46,0,0,0,7.36.82,60.79,60.79,0,0,0,13-.58c4.76-.79,8-2.9,12.64-3.59,2.27-.34,4.49-.42,6.77-.77,3.76-.56,8.21-2.29,11.52-1.59.61.14,1.85-.32,1.3-.57l-.3-.13-.94.6a19.87,19.87,0,0,0,8.57-2.35,9.47,9.47,0,0,0,2.11-1.89,6.69,6.69,0,0,1,2.12-1.9c1.93-1,3.78-.82,5.75-1a14.65,14.65,0,0,0,7.52-2.37,35.94,35.94,0,0,0,3.41-3.3,23.22,23.22,0,0,1,6.62-4l-1.14-.21-.18.26c-.18.25.37.41.94.26,4.4-1.11,7.33-2.93,8.89-4.84,2.1-2.59.64-4.72,1.48-7.16.71-2.08,4.25-2.16,7.4-3.14a16.38,16.38,0,0,0,5-2.38c2.84-2.21,1.5-4.36.77-6.18-.47-1.16-1.56-2.31-1.73-3.52a1.72,1.72,0,0,1,1-1.95,18.62,18.62,0,0,1,1.87-.62,15.29,15.29,0,0,0,2.89-1.26c2.6-1.58,2.72-3.36,1.46-4.58a14.19,14.19,0,0,0-4.17-2.26c-1.59-.68-3-1.21-2.26-2.49a14.45,14.45,0,0,0,.92-1.44c.85-2-.65-3.71-3.94-4.53-2.7-.66-6.34-.71-7.52-2.1-.79-.93-.67-2.11-2.36-2.76-2.4-.92-6.89-.49-10.27.8l1.14.2.4-.44c.27-.3-.57-.42-1.14-.2a42.54,42.54,0,0,1-5.69,1.74c-3.94.88-5.27-.17-6.64-1.17-1.57-1.14-2.86-2.6-5.12-3.49a9.39,9.39,0,0,0-5.37-.23c-3.87.87-4,3.42-8.86,3.23-3.91-.16-7.23-1.08-11-1.41-2.35-.2-5.81-.75-8.69-.27s-2.4,1.31-3.71,2.2c-1.46,1-3.48.4-5,.27-1.88-.17-3.7-.33-5.41-.61a48.23,48.23,0,0,0-17.7.29c-6,1.29-10.44,3.69-11.38,6.28-.58,1.6,1.52,3.6-2.88,5.11s-8.93,1-13.11,1.26a27.47,27.47,0,0,0-6.53,1.11c-2.83.93-3,1.65-3.53,2.79-.88,2-7.13,2-10,3.37a7.44,7.44,0,0,0-2.47,2,16.15,16.15,0,0,1-4.53,3.46c-2.12,1.14-6.14,2.22-6.59,3.62s2.58,1.86,5.12,2.1c.88.08,1.73-.6.86-.68-2.41-.23-6.27-.7-3.42-2.46.66-.4,2.07-.83,2.88-1.19a25.21,25.21,0,0,0,5-2.8c1.85-1.38,2.46-3.36,6-4.31,1.93-.51,4-.58,5.89-1.18a5.39,5.39,0,0,0,2.77-1.53c.36-.55.14-.82.67-1.42,1-1.13,3.16-1.68,5.63-2,4.64-.59,8.72,0,13.47-.94,3.37-.7,5.95-2,6.34-3.41.32-1.19-.46-2.16.19-3.42.73-1.41,2.55-2.76,5.44-3.86,5.53-2.09,12.06-2.41,17.17-2,2,.18,3.67.59,5.66.78,2.8.26,5.63.49,8.46.74a2,2,0,0,0,1-.19,7.41,7.41,0,0,0,1.39-1.05c.76-.66.07-.4,1.88-1.16s2.22-.6,4.06-.51a98.76,98.76,0,0,1,10.54,1c2.94.45,8.24,1.58,11.73-.69.31-.2.43-.43.72-.63l2.77-1.45,2.71.13a6.67,6.67,0,0,1,2.92,1.73c1.54,1.11,2.75,2.56,4.85,3.47,2.6,1.12,9.21-1.05,12.25-2.21l-1.14-.2-.4.44c-.27.3.57.42,1.14.21,2.68-1,6.16-1.4,8.13-.7,1.62.58,1.51,1.71,2.2,2.58,1.28,1.62,5.27,1.61,8.25,2.44,1.87.52,3,1.37,3.31,2.42s-.81,2.21-1.27,3.38c-.71,1.81,3.07,2.49,5.05,3.52,1.49.78,2.63,1.73,2.34,3-.36,1.56-2.63,2.49-5.64,3.55-4,1.43-2.51,2.5-1.77,3.88,1.07,2,3.2,4.57,1.79,7-.77,1.32-3.1,2.71-6.14,3.5-1.82.48-4.13.59-5.77,1.3-3.33,1.46-1.89,4.29-2,5.67-.14,2.6-1.81,6.05-9,7.88l.94.26.18-.25c.19-.28-.55-.46-1.14-.21a25.85,25.85,0,0,0-7.23,4.36,32.81,32.81,0,0,1-3.42,3.31c-2.26,1.58-5,1.68-8.07,2a11.18,11.18,0,0,0-5.91,1.88c-1,.79-1.41,1.6-2.32,2.39-1.64,1.44-4.6,2.48-7.95,2.71-.59,0-1.37.42-.94.61l.3.13,1.31-.56c-4.05-.87-8.85,1.05-13.62,1.68-4.26.56-7.65.64-11.55,2.18a42.49,42.49,0,0,1-16.95,2.68,60.91,60.91,0,0,1-8.48-.73c-1.81-.29-3.55-.91-5.93-.72-3.62.28-6.6,1.92-9.66,2.94-6.77,2.26-11.84.18-14.38-1.57-1.39-1-1.7-2.2-3-3.18a4.11,4.11,0,0,0-2.53-.7,24.27,24.27,0,0,0-5.18.69c-4.25.88-7.62,1.45-11.41,1.09l.25.4.19-.15c.18-.14.15-.31-.09-.37-3.85-1-5.77-2.58-6.3-4.69-.31-1.23-.54-2.65-3.6-2.9-1.64-.14-3.53.19-5.3.23-3.89.09-4.44-1.34-2.71-3,1.49-1.4,7.36-3.89,7.11-5.32-.21-1.25-6.41-.49-8.35-.76-6.65-.94-.53-3.72,1-6.06,1.1-1.72-1.87-2-3.17-3.05-2.42-2,4.62-4.67,8.9-6.2,4.49-1.61,8.36-3.3,10.46-5.54,1-1,2.75-3.19-.45-3.17-.92,0-1.39.69-.42.68Z"/><path class="cls-4" d="M364.88,404a20.28,20.28,0,0,1,2.61-1,9.39,9.39,0,0,1,1.31-.37c.47,0,.29-.06.44.15.4.52,1.43.75,2.8.74s1.9-.93.61-.92c-2,0-1-1.35-3.61-.89a23.75,23.75,0,0,0-5.6,1.89c-1.09.52.36.92,1.44.42Z"/><path class="cls-5" d="M402.31,406.15a36.53,36.53,0,0,0-5.06,2c-1.05.53.39.94,1.44.42a32.18,32.18,0,0,1,4.6-1.83c1.29-.4.28-1-1-.61Z"/><path class="cls-4" d="M371.67,434.65a6.21,6.21,0,0,1,3.38-.71,5.16,5.16,0,0,0,2.93-.68c.82-.58-1-.75-1.81-.18.2-.14-.07-.06-.4-.06h-.62a10.37,10.37,0,0,0-2,.2,9.07,9.07,0,0,0-3.32,1.26c-.86.56.95.73,1.81.18Z"/><path class="cls-4" d="M333.56,446.82c.95,1-1.34,2.43-.52,3.45.37.48,2.46,0,2.08-.51-.8-1,1.52-2.45.53-3.45-.46-.45-2.54.06-2.09.51Z"/><path class="cls-4" d="M295.44,456.14a6.93,6.93,0,0,1,3.92-1.4c1.34-.09,2-1,.61-.92-2.49.17-5.13,1-6.34,2.14-.63.58,1.17.76,1.81.18Z"/><path class="cls-4" d="M285.1,442.78a24.51,24.51,0,0,0-5,3.84c-.66.74-.73,1.36.66,1.61,1.07.18,2.19-.73,1.14-.91-1.4-.24,3.9-3.69,4.59-4.12.87-.56-.56-1-1.44-.42Z"/><path class="cls-4" d="M252.26,438.2c.67-.73,3.59-.06,4.36,0a10,10,0,0,0,3.07-.29c1.34-.34.86-1.1-.47-.77-2,.5-3.55-.32-5.44-.16a5.71,5.71,0,0,0-3.56,1.3c-.54.59,1.51.52,2-.07Z"/><path class="cls-4" d="M282.8,423a27.56,27.56,0,0,0-5.42.82c-1.46.38-3.21,1-3.1,1.71.09.53,2.23.23,2.14-.31-.06-.35,1.81-.74,2.47-.88a22.4,22.4,0,0,1,3.3-.42c1.32-.07,1.95-1,.61-.92Z"/><path class="cls-4" d="M270.89,410c1.35-.7,3-1.41,4.36-.9a4.31,4.31,0,0,0,2.76.08c1.32-.35.85-1.12-.47-.77-.36.1-1.32-.35-1.63-.4a8,8,0,0,0-2.06,0,14,14,0,0,0-4.41,1.53c-1,.54.42.95,1.45.42Z"/><path class="cls-4" d="M319.85,403.9c-.31-1.12-4.36.5-5.42,1-1.9.84-4.21,2.24-1.67,2.65,1.08.17,2.22-.74,1.14-.91-.79-.12,1.47-1.1,1.86-1.27s.79-.34,1.2-.49l.47-.17c.54-.1.66-.19.34-.26.14.53,2.23,0,2.08-.51Z"/><path class="cls-4" d="M309.65,398.64l4.41-1.16c1.33-.35.85-1.12-.47-.77l-4.42,1.16c-1.33.35-.86,1.12.48.77Z"/><path class="cls-4" d="M360.87,390.9c-2.73,1.22-4.54,2.66-5.13,4.09-.25.58,1.79.52,2-.07.55-1.29,2.07-2.5,4.53-3.6,1.12-.5-.33-.91-1.44-.42Z"/><path class="cls-4" d="M396.54,396.12a74.13,74.13,0,0,0,7.68-1.43c1.35-.33.87-1.09-.47-.77a69,69,0,0,1-7.14,1.33c-1.37.18-1.45,1.06-.07.87Z"/><path class="cls-5" d="M379.39,423a4.77,4.77,0,0,1,3,.85c.45.44,2.53-.06,2.08-.52a6,6,0,0,0-4-1.24c-1.22-.05-2.37.85-1.14.91Z"/><path class="cls-5" d="M349.53,446.5a35.3,35.3,0,0,0,8.81-.84c1.37-.3.89-1.07-.47-.77a28.84,28.84,0,0,1-7.2.7c-1.22,0-2.38.86-1.14.91Z"/><path class="cls-5" d="M306,444.82q-4.59.68-9.15,1.17c-1.37.15-1.43,1-.07.87,3-.32,6.08-.71,9.15-1.17,1.37-.2,1.45-1.08.07-.87Z"/><path class="cls-5" d="M254,446a17.75,17.75,0,0,0,6.2-.83c1.28-.4.28-1-1-.61a12.18,12.18,0,0,1-4.08.54c-1.2-.08-2.35.83-1.13.9Z"/><path class="cls-5" d="M254,427c-.13.27-.61.49-1,.74a2,2,0,0,0-.85.77c-.2.48.23.9,1.42.82s1.95-1,.61-.92c0,0,.07.08.05,0s0-.11,0-.15a2.46,2.46,0,0,1,.63-.42,2.7,2.7,0,0,0,1.16-1c.27-.58-1.77-.52-2,.07Z"/><path class="cls-5" d="M290.31,412.43a9.72,9.72,0,0,1-4.43,1.89c-1.36.29-.88,1.05.47.77a13.08,13.08,0,0,0,5.77-2.48c.66-.59-1.15-.77-1.81-.18Z"/><path class="cls-5" d="M334.17,393.25c.2-1.25-1.11-2.16-3.45-2.57-1.06-.19-2.19.72-1.14.9,1.75.31,2.6,1.06,2.46,2-.08.56,2,.26,2.13-.31Z"/><path class="cls-5" d="M349.68,403.86c-1,.84-1.15,1.65-.37,2.25.54.43,2.43-.26,1.89-.69s-.34-.88.29-1.38-1.08-.76-1.81-.18Z"/><path class="cls-5" d="M389.32,394.94a21.43,21.43,0,0,1,3.8-1.26c1.35-.33.88-1.09-.47-.77a26.68,26.68,0,0,0-4.77,1.62c-1.1.5.35.91,1.44.41Z"/><path class="cls-6" d="M400.35,419.58a1.83,1.83,0,0,0,.57,1.62,1.46,1.46,0,0,0,1.28.13c.51-.13,1-.45.81-.64a1.56,1.56,0,0,1-.53-1.41c.09-.57-2-.26-2.13.3Z"/><path class="cls-6" d="M382.07,442.32a11.56,11.56,0,0,0-5.21-1.62c-1.14-.13-2.28.77-1.14.9a9.8,9.8,0,0,1,4.45,1.41c.6.4,2.49-.29,1.9-.69Z"/><path class="cls-6" d="M346,437.35c-1.61.7-2.54,1.57-2.67,2.38-.09.57,2,.26,2.14-.3s.81-1.16,2-1.67-.34-.9-1.44-.41Z"/><path class="cls-6" d="M263.38,454.24a18.05,18.05,0,0,0,6,0c1.38-.23,1.46-1.1.08-.87a13.73,13.73,0,0,1-4.5.08c-1-.19-2.62.63-1.58.83Z"/><path class="cls-6" d="M280.28,432c-2.06.49-3.41,1.55-2.95,2.3.3.5,2.39,0,2.08-.51s.41-.8,1.34-1c1.36-.32.88-1.08-.47-.77Z"/><path class="cls-6" d="M267.58,417.53c-.84,1-.21,2,1.57,2.35,1,.21,2.61-.62,1.58-.82-1.27-.26-1.71-.86-1.11-1.59s-1.56-.53-2,.06Z"/><path class="cls-6" d="M293.41,404.17l2.1-1.93c.64-.58-1.17-.77-1.81-.18L291.6,404c-.64.59,1.16.77,1.81.18Z"/><path class="cls-6" d="M332.05,399c.19.66,1.19,1.12,2.62,1.28,1.15.12,2.29-.78,1.14-.91s-1.54-.43-1.68-.88c-.06-.23-.76-.26-1.27-.13s-.88.42-.81.64Z"/><path class="cls-6" d="M375.56,394.66a19.36,19.36,0,0,1,4.19-1.67c1.31-.36.84-1.13-.47-.77a24.14,24.14,0,0,0-5.16,2c-1,.54.47,1,1.44.42Z"/><path class="cls-6" d="M382.18,412.18c-2.39.72-3.41,2.13-2.16,2.81.69.37,2.58-.32,1.89-.69s-.08-1.1,1.25-1.51.29-1-1-.61Z"/><path class="cls-6" d="M412.85,403.55l7.22,1.5c1,.21,2.6-.62,1.57-.83l-7.21-1.49c-1-.21-2.61.61-1.58.82Z"/><path class="cls-7" d="M389.1,431.58a15,15,0,0,0,6.76-1.73c.92-.55-.51-1-1.44-.41a10.23,10.23,0,0,1-4.71,1.22c-1.3,0-1.92.94-.61.92Z"/><path class="cls-7" d="M264.23,429.94c-.38,1.23.65,2.26,2.73,2.77,1,.24,2.55-.58,1.58-.82-1.73-.43-2.49-1.23-2.18-2.25.18-.58-2-.27-2.13.3Z"/><path class="cls-7" d="M264.46,449.46a33.43,33.43,0,0,1,6.69-1.89c1.36-.24,1.45-1.12.07-.88a39.47,39.47,0,0,0-7.75,2.16c-1.16.47-.19,1.08,1,.61Z"/><path class="cls-7" d="M315.05,452c-.07,0-.06,0,0,0l.15,0,.07,0,0,0c.14.08.16.09.21.2s.73.26,1.28.13.91-.43.81-.64-.72-.58-1.47-.69a2.36,2.36,0,0,0-1.47.36c-.31.27-.14.47.34.55Z"/><path class="cls-7" d="M320.85,407.29c-1.43.71-2.25,1.55-2.24,2.31,0,.55,2.15.25,2.14-.3s.51-1.09,1.54-1.6-.4-.93-1.44-.41Z"/><path class="cls-7" d="M312.68,392.78a40.75,40.75,0,0,0,12.47-4.32c.94-.54-.5-1-1.44-.41a35.78,35.78,0,0,1-11,3.86c-1.36.26-1.45,1.14-.07.87Z"/><path class="cls-7" d="M357.17,398.17a12.18,12.18,0,0,0,5.5.71c1.33-.08,2-1,.61-.92a9.81,9.81,0,0,1-4.23-.48c-.76-.33-2.66.36-1.88.69Z"/><path class="cls-7" d="M388,404.45a9.25,9.25,0,0,0-2.38,2.32c-.4.59,1.65.52,2.05-.07a8,8,0,0,1,2.14-2.07c.81-.57-1-.75-1.81-.18Z"/><path class="cls-7" d="M401.38,389.08a2.32,2.32,0,0,0,0,2.46c.3.5,2.39,0,2.08-.51a1.93,1.93,0,0,1,0-2c.31-.59-1.74-.52-2.05.07Z"/><path class="cls-7" d="M358.23,450.45a38,38,0,0,1,3.89-2.27c1-.53-.41-.94-1.43-.41a39.26,39.26,0,0,0-4.26,2.5c-.84.57,1,.74,1.8.18Z"/><path class="cls-7" d="M288.51,418.11l1,1.48c.33.49,2.42,0,2.08-.52l-1-1.47c-.33-.48-2.41,0-2.08.51Z"/><path class="cls-8" d="M399.32,415.42a13.4,13.4,0,0,1,5.62.21c.91.28,2.49-.55,1.58-.82a17.33,17.33,0,0,0-7.14-.26c-1.37.18-1.45,1.06-.06.87Z"/><path class="cls-8" d="M354.36,439.39c.3,1.06,1.93,1.78,4.32,1.94,1.2.09,2.34-.82,1.14-.9-2-.14-3.13-.69-3.38-1.55-.14-.53-2.22,0-2.08.51Z"/><path class="cls-8" d="M315.57,447a13,13,0,0,0,5.11-3c.57-.59-1.48-.52-2,.07a10.84,10.84,0,0,1-4.06,2.28c-1.24.44-.25,1,1,.61Z"/><path class="cls-8" d="M284.52,436.77c1.55-.14,3.06-.2,4.52-.19,1.28,0,1.89-.92.61-.92-1.64,0-3.32.08-5.07.23-1.34.12-1.4,1-.06.88Z"/><path class="cls-8" d="M266,440c-1.8.77-2.7,1.73-2.28,2.54.27.5,2.35,0,2.08-.51s.21-1,1.18-1.41c1.13-.49.15-1.1-1-.62Z"/><path class="cls-8" d="M279.7,412.14a21.94,21.94,0,0,0-6.35.08c-1.37.19-1.44,1.07-.07.87a17.68,17.68,0,0,1,5.28,0c1.09.17,2.22-.74,1.14-.91Z"/><path class="cls-8" d="M307.26,406.47q.84-2.28,1.92-4.59c.27-.58-1.77-.52-2,.07-.76,1.62-1.43,3.22-2,4.83-.21.58,1.92.27,2.14-.31Z"/><path class="cls-8" d="M351.47,391.37c-2.42.16-4.84.31-7.26.49a9.62,9.62,0,0,0-4.06.9c-.93.55.51,1,1.44.41s3.75-.51,4.77-.58l4.5-.3c1.33-.09,2-1,.61-.92Z"/><path class="cls-8" d="M335.22,405.16l2.57,1.82c.59.41,2.48-.28,1.89-.69l-2.57-1.82c-.57-.42-2.47.28-1.89.69Z"/><path class="cls-8" d="M380,399.11c-1.29.95-1.69,1.93-1.15,2.73.33.49,2.42,0,2.08-.51s-.11-1.31.88-2c.79-.58-1-.75-1.81-.18Z"/><path class="cls-8" d="M367.06,413.42a21.46,21.46,0,0,1,4.41,1.25c.78.33,2.68-.36,1.89-.69a22.34,22.34,0,0,0-4.73-1.38c-1-.19-2.63.63-1.57.82Z"/><path class="cls-8" d="M280.25,455.28l2.4.23,1.2.11a3.26,3.26,0,0,0,1.36-.08c-1.36.25-1.44,1.12-.07.87s2.28-1,1.48-1.4a6.78,6.78,0,0,0-2-.33l-3.2-.31c-1.17-.11-2.32.79-1.14.91Z"/><path class="cls-8" d="M375.35,387.45q3.58,1,7,2.11l1.09-.87-1.07,0c-1.32,0-1.94,1-.61.92l1.07,0c1,0,1.77-.66,1.1-.88-2.27-.73-4.59-1.44-7-2.11-.93-.26-2.51.56-1.57.83Z"/><path class="cls-8" d="M413.94,392.47c-2.54,1-3.53,2.51-2,3.31.7.37,2.6-.32,1.89-.69-.91-.48-.49-1.39,1.09-2,1.19-.46.21-1.08-1-.61Z"/><path class="cls-8" d="M333.29,456.29c-.21,0-.07,0,0,0a1,1,0,0,1,.18-.1,8,8,0,0,1,1.32-.32c.57-.11.92-.45.8-.63s-.7-.24-1.27-.13a6.8,6.8,0,0,0-2.86,1c-.55.47-.36,1,.7,1.07a2.49,2.49,0,0,0,1.48-.36c.27-.23.18-.53-.34-.55Z"/><polygon class="cls-9" points="118.17 265.79 119.69 49.89 694.98 45.45 695.5 267.36 118.17 265.79"/><polygon class="cls-9" points="63.16 234.39 63.16 3.76 119.69 49.89 118.17 265.79 63.16 234.39"/><polygon class="cls-9" points="695.5 267.36 655.48 235.27 655.48 3.76 694.98 45.45 695.5 267.36"/><polygon class="cls-9" points="63.16 3.76 655.48 3.76 655.48 45.45 119.69 49.89 63.16 3.76"/><polygon class="cls-1" points="2.58 468.72 118.17 265.79 118.17 324.34 36.37 469.75 2.58 468.72"/><polygon class="cls-10" points="580.6 468.72 36.37 469.75 119.56 323.72 696.37 324.97 580.6 468.72"/><polyline class="cls-9" points="580.6 527.1 580.6 468.72 695.5 267.36 695.5 327.3 580.6 527.1"/><rect class="cls-9" x="2.58" y="468.72" width="578.02" height="58.38"/></g></g></svg>