<svg xmlns="http://www.w3.org/2000/svg" viewBox="0 0 699.49 528.6"><defs><style>.cls-1{fill:#a98c64;}.cls-1,.cls-10,.cls-2,.cls-9{stroke:#000;stroke-miterlimit:10;stroke-width:3px;}.cls-2{fill:#d19f59;}.cls-3{fill:#ff4fa2;}.cls-4{fill:#fdec06;}.cls-5{fill:#42b8ea;}.cls-6{fill:#2ba048;}.cls-7{fill:#e81e25;}.cls-8{fill:#fff;}.cls-9{fill:#d8b891;}.cls-10{fill:none;}</style></defs><title>3 box</title><g id="Layer_2" data-name="Layer 2"><g id="Layer_3" data-name="Layer 3"><polygon class="cls-1" points="579.38 469.97 2.58 468.72 118.17 265.79 694.98 267.05 579.38 469.97"/><path class="cls-2" d="M414.77,445.25c-28.48,22.66-88.27,37.39-133.54,32.91s-58.88-26.5-30.4-49.16,88.27-37.39,133.54-32.91S443.25,422.59,414.77,445.25ZM348,425.06c-15.65-1.55-36.31,3.54-46.15,11.37s-5.14,15.44,10.5,17,36.31-3.54,46.15-11.37S363.61,426.61,348,425.06Z"/><path class="cls-2" d="M413.88,430.39c-28.48,22.66-88.27,37.39-133.54,32.9s-58.88-26.49-30.4-49.15,88.27-37.4,133.54-32.91S442.36,407.73,413.88,430.39Zm-66.8-20.2c-15.65-1.55-36.31,3.54-46.15,11.38s-5.14,15.43,10.5,17,36.31-3.54,46.15-11.37S362.73,411.75,347.08,410.19Z"/><path class="cls-3" d="M343.44,410.22c-.74.43.06.87,1.11.81a19.86,19.86,0,0,0,3.17-.6,5.06,5.06,0,0,1,2.86-.06.75.75,0,0,1,.31.43c.6,1.24,3.87,1.77,7.21,1.18,2.17-.39,4.65-1.19,6.3-.88,1.32.26,1.19,1.12.72,1.87-.78,1.2-2.16,2.42-2.69,3.61s0,2.41,2.32,2.68c1.71.2,4.14-.14,5.35.35,1.47.58.14,1.93-1.43,2.95a46.86,46.86,0,0,1-8.54,4.25c-2.91,1.12-6.49,2.35-7.06,3.77-.4,1,.94,1.78.3,2.79-1,1.51-5.36,2.51-8.86,2.94s-7.57.86-10,2.27c-1.56.91-1.87,2-3.37,2.92-2.46,1.51-7.22,2-10.14,1.56a14.46,14.46,0,0,1-6.21-2.76,13,13,0,0,0-7-2.31c-4.49-.21-10.44,1.29-14.37.64-.35-.06-.69-.15-.78-.31s.15-.42.41-.64c1.21-1.06,2.55-2.14,3-3.19s-.25-2.09-2.36-2.3c-1.58-.16-3.86.14-4.7-.41-.56-.36-.21-.95.21-1.48a27.77,27.77,0,0,1,8.34-6.55c3.13-1.74,7.17-3.65,7.05-5.4-.07-.88-1.16-1.66,0-2.59,1.4-1.14,4.76-1.45,7.4-1.69a73.21,73.21,0,0,0,14.54-2.84c1.33-.41,2.81-1,2.88-1.57,0-.23-.21-.44,0-.69a4.13,4.13,0,0,1,2.05-.72c5.87-1,11.42.18,11.9,2.47m-86,6.45c1-.16,1.34.37,1.22.8-.54,1.81-2.85,3.78-6.27,5.36-3.14,1.44-7,2.52-10.26,3.93s-5.74,3.5-4.18,4.72c.86.67,2.85.95,3.34,1.74.95,1.47-3.76,3.5-4.25,5.23-.27,1,.89,1.72,2.6,2.08a25.7,25.7,0,0,0,6.16.28c1.2-.05,2.71-.05,2.72.45,0,.16-.16.33-.34.51-1.55,1.46-4.38,2.78-6.22,4.22s-2.37,3.28.35,3.7c2.24.33,5.64-.46,7.93-.16,2.7.36,2.56,2,2.91,3.24.52,1.9,2.82,3.45,6.37,4.29l-.19.15a29.61,29.61,0,0,0,9-.49c3.24-.65,7.24-1.78,9.24-1.05a2.08,2.08,0,0,1,1.17,1.12,10.49,10.49,0,0,0,5,3.83,17.45,17.45,0,0,0,10.49.84c4.4-1,8.17-3.56,12.35-3.56a14,14,0,0,1,2.93.4,61,61,0,0,0,12.95,1.1c4.41-.06,9.51-.57,13.58-2.13,1.12-.43,2.12-.92,3.3-1.31,3.54-1.16,7.58-1,11.41-1.73,1.95-.35,3.82-.9,5.76-1.27a12.47,12.47,0,0,1,5.36-.15l-.31-.13c3.07-.12,6.64-1.21,8.37-2.56s2.11-3.14,5.24-4c2.34-.66,4.8-.34,7.25-.82a11.37,11.37,0,0,0,4.32-1.82,16.81,16.81,0,0,0,2.37-2.3,22.2,22.2,0,0,1,8-5.21l-.18.25c5-1.14,8.19-3.7,9.12-5.85s.23-4.12.71-6.24a2.08,2.08,0,0,1,1.33-1.51,16.42,16.42,0,0,1,3.63-.82c3.63-.62,7.07-2.16,8.33-3.73a3.25,3.25,0,0,0,.38-3.38,25.84,25.84,0,0,0-2.61-5.67c-.16-.26-.32-.53-.15-.83.48-.84,2.9-1.38,4.61-2,3.43-1.26,4.45-3.29,3.45-4.65s-3.52-2.22-5.75-3.16a2.86,2.86,0,0,1-1.41-.92c-.33-.64.49-1.46,1-2.21,1.31-2.05-.08-4-3.49-4.77-2.31-.55-5.49-.65-7-1.57s-1-2.29-2.54-3.13c-1.83-1-6.56-.75-9.67.56l.4-.44a40.81,40.81,0,0,1-8,2.21,8.85,8.85,0,0,1-2.5.18,2.4,2.4,0,0,1-1.19-.53l-5.23-3.79a6.14,6.14,0,0,0-2.94-1.31,8.67,8.67,0,0,0-4.86.74c-.88.5-1,1.1-1.83,1.62a10.08,10.08,0,0,1-4.71,1.13,21.18,21.18,0,0,1-4.28-.46,104.19,104.19,0,0,0-14-1.38,9.13,9.13,0,0,0-3,.25c-2.08.63-1.68,1.93-3.46,2.74l-9.67-.85-.58-.19a49.5,49.5,0,0,0-12.55-.46c-4.64.45-9.77,1.8-12.71,3.73-2.17,1.41-2.95,3-2.78,4.35.11.79.49,1.58-.33,2.45-1.1,1.16-4.09,2.06-6.77,2.42a70.89,70.89,0,0,1-7.76.37,29.78,29.78,0,0,0-7.89,1.08c-1.55.5-2.93,1.25-3.11,1.95-.09.35.12.66-.07,1-.44.79-2.56,1.42-4.39,1.74a28.37,28.37,0,0,0-5.35,1.17,7.71,7.71,0,0,0-3.18,2.55,21,21,0,0,1-7.47,4.58,12.49,12.49,0,0,0-2.66,1.24c-.92.71-.57,1.44.4,1.84a15,15,0,0,0,3.88.67"/><path d="M342.67,410.25c-.95,1.05,1,1.21,3,1,1.35-.17,3.54-.67,4.39-.33.28.11.31.47.53.64a5.81,5.81,0,0,0,2.82,1,16.38,16.38,0,0,0,3.76,0c.69-.08,1.36-.22,2.06-.36s1.25-.32,1.81-.38c1.62-.19,3.41.29,3.45,1,.05,1-1.95,2.41-2.56,3.43a2.26,2.26,0,0,0-.37,2,2.3,2.3,0,0,0,1.6,1.24c1.22.38,2.8.15,4.22.32,4.23.51,1.71,2.23-.9,3.75a52.06,52.06,0,0,1-7.21,3.35c-2.85,1.1-6.44,2.38-7,3.93-.31.88,1.16,1.82.33,2.7-1.65,1.76-6.18,2.34-9.52,2.76-3.12.4-6.72.92-9.07,2.27-1.43.82-1.71,1.69-2.85,2.53-2.35,1.73-6.73,2.2-9.66,1.75-4.27-.65-5.5-2.81-8.54-4-2.29-.92-5.16-1.19-9-.87-2.25.19-4.61.56-6.82.64-1.34.05-3.53.07-3.43-.67.06-.39,1.42-1.23,1.83-1.65,1.39-1.4,2.21-3,.15-3.87a11.43,11.43,0,0,0-2.81-.44c-1.68-.2-3.16-.62-2.93-1.52.18-.7,1.52-1.71,2.35-2.43,2.78-2.41,7.06-4.35,10.5-6.63a6.08,6.08,0,0,0,2.48-2.45,1.58,1.58,0,0,0,0-.94c0-.14-.12-.26-.16-.4-.24-.88-.7-1.08,1.47-1.95,2.65-1.06,5.2-1,8.17-1.4,2.34-.31,4.69-.73,7-1.25a40.78,40.78,0,0,0,6.58-1.89c1.53-.66,1.11-.9,1.82-1.55,1.59-1.47,6.34-1.22,8.38-.85,2.3.41,3.64,1.24,4,2.37.13.39,1.69,0,1.56-.38-.49-1.46-2.55-2.48-5.75-2.83-2-.22-6.82-.33-9,.81a2.87,2.87,0,0,0-.75.58c-1,1-.88,1.46-3.32,2.18a70,70,0,0,1-9.87,2.08c-3.26.46-8.16.45-10.89,2-1.06.58-1.28,1.19-1.21,1.74s.5.92.5,1.42c0,.95-1.26,2-2.77,2.9-3.81,2.35-7.94,4.36-10.66,6.9-1.38,1.28-4.05,3.53-1.14,4.09a25.45,25.45,0,0,0,3.1.15c2.14.13,3.18.71,3,1.7s-1.12,1.75-2.06,2.61c-.41.38-1.23.88-1.35,1.27-.43,1.39,4.25,1.1,6.71.88s4.78-.57,7-.63a13.39,13.39,0,0,1,8.43,2.23c2,1.27,4,2.82,8.19,3,3,.13,7-.49,9.41-1.9,1.94-1.14,2-2.5,4.66-3.53s5.91-1.18,8.64-1.57c3.4-.47,8-1.5,9.11-3.21.62-1-.46-1.59-.33-2.46.26-1.8,5.18-3.19,8.29-4.5,3.43-1.44,7.69-3.46,9.06-5.32,1.93-2.62-4-1.54-6.72-2.38-4.81-1.51,3.44-5.26,1.62-7.35-1.48-1.69-7.16.54-10.39.54-2.15,0-3.36-.52-4-1.27-.26-.31-.23-.47-.85-.64a4.54,4.54,0,0,0-1.86-.07c-.66.07-5.56,1.19-4.75.3.4-.44-1.13-.39-1.54.05Z"/><path d="M257.14,417.51c1.12,0,.17,1.59-.14,2a10.26,10.26,0,0,1-2.11,1.91,35.14,35.14,0,0,1-8,3.67c-3.43,1.22-6.9,2.46-8.91,4.15-1.48,1.24-1.8,2.45-.34,3.27s3.61,1.13,2.41,2.69a35.81,35.81,0,0,1-2.91,2.55c-1.39,1.4-1.16,2.58.89,3.31a14.92,14.92,0,0,0,4.25.64c.83,0,2.65-.17,3.28,0,.79.18,1.22,1,.92,1.35a12.11,12.11,0,0,1-2.29,1.49c-2.26,1.42-4.54,2.86-4.59,4.34,0,1.19,1.57,1.83,4.32,1.77,3.43-.08,6.86-.71,7.86.89.54.86.41,1.88.9,2.75a6.28,6.28,0,0,0,2.54,2.27c.44.24,3.12,1.35,3.41,1.13-.24.18-.12.37.25.4a30.75,30.75,0,0,0,6.42-.05c2.75-.31,5.32-1.13,8-1.49,4.57-.61,4.67,1.42,5.88,2.53a12.51,12.51,0,0,0,3.12,2.06A17.49,17.49,0,0,0,291,462.7c3.9-.23,6.8-1.63,10.09-2.81a14.18,14.18,0,0,1,8.79-.57,57.46,57.46,0,0,0,7.36.82,60.79,60.79,0,0,0,13-.58c4.76-.79,8-2.9,12.64-3.59,2.27-.34,4.49-.42,6.77-.77,3.76-.56,8.21-2.29,11.52-1.59.61.14,1.85-.32,1.3-.57l-.3-.13-.94.6a19.87,19.87,0,0,0,8.57-2.35,9.47,9.47,0,0,0,2.11-1.89,6.69,6.69,0,0,1,2.12-1.9c1.93-1,3.78-.82,5.75-1a14.65,14.65,0,0,0,7.52-2.37,35.94,35.94,0,0,0,3.41-3.3,23.22,23.22,0,0,1,6.62-4l-1.14-.21-.18.26c-.18.25.37.41.94.26,4.4-1.11,7.33-2.93,8.89-4.84,2.1-2.59.64-4.72,1.48-7.16.71-2.08,4.25-2.16,7.4-3.14a16.38,16.38,0,0,0,5-2.38c2.84-2.21,1.5-4.36.77-6.18-.47-1.16-1.56-2.31-1.73-3.52a1.72,1.72,0,0,1,1-1.95,18.62,18.62,0,0,1,1.87-.62,15.29,15.29,0,0,0,2.89-1.26c2.6-1.58,2.72-3.36,1.46-4.58a14.19,14.19,0,0,0-4.17-2.26c-1.59-.68-3-1.21-2.26-2.49a14.45,14.45,0,0,0,.92-1.44c.85-2-.65-3.71-3.94-4.53-2.7-.66-6.34-.71-7.52-2.1-.79-.93-.67-2.11-2.36-2.76-2.4-.92-6.89-.49-10.27.8l1.14.2.4-.44c.27-.3-.57-.42-1.14-.2a42.54,42.54,0,0,1-5.69,1.74c-3.94.88-5.27-.17-6.64-1.17-1.57-1.14-2.86-2.6-5.12-3.49a9.39,9.39,0,0,0-5.37-.23c-3.87.87-4,3.42-8.86,3.23-3.91-.16-7.23-1.08-11-1.41-2.35-.2-5.81-.75-8.69-.27s-2.4,1.31-3.71,2.2c-1.46,1-3.48.4-5,.27-1.88-.17-3.7-.33-5.41-.61a48.23,48.23,0,0,0-17.7.29c-6,1.29-10.44,3.69-11.38,6.28-.58,1.6,1.52,3.6-2.88,5.11s-8.93,1-13.11,1.26a27.47,27.47,0,0,0-6.53,1.11c-2.83.93-3,1.65-3.53,2.79-.88,2-7.13,2-10,3.37a7.44,7.44,0,0,0-2.47,2,16.15,16.15,0,0,1-4.53,3.46c-2.12,1.14-6.14,2.22-6.59,3.62s2.58,1.86,5.12,2.1c.88.08,1.73-.6.86-.68-2.41-.23-6.27-.7-3.42-2.46.66-.4,2.07-.83,2.88-1.19a25.21,25.21,0,0,0,5-2.8c1.85-1.38,2.46-3.36,6-4.31,1.93-.51,4-.58,5.89-1.18a5.39,5.39,0,0,0,2.77-1.53c.36-.55.14-.82.67-1.42,1-1.13,3.16-1.68,5.63-2,4.64-.59,8.72,0,13.47-.94,3.37-.7,5.95-2,6.34-3.41.32-1.19-.46-2.16.19-3.42.73-1.41,2.55-2.76,5.44-3.86,5.53-2.09,12.06-2.41,17.17-2,2,.18,3.67.59,5.66.78,2.8.26,5.63.49,8.46.74a2,2,0,0,0,1-.19,7.41,7.41,0,0,0,1.39-1.05c.76-.66.07-.4,1.88-1.16s2.22-.6,4.06-.51a98.76,98.76,0,0,1,10.54,1c2.94.45,8.24,1.58,11.73-.69.31-.2.43-.43.72-.63l2.77-1.45,2.71.13a6.67,6.67,0,0,1,2.92,1.73c1.54,1.11,2.75,2.56,4.85,3.47,2.6,1.12,9.21-1.05,12.25-2.21l-1.14-.2-.4.44c-.27.3.57.42,1.14.21,2.68-1,6.16-1.4,8.13-.7,1.62.58,1.51,1.71,2.2,2.58,1.28,1.62,5.27,1.61,8.25,2.44,1.87.52,3,1.37,3.31,2.42s-.81,2.21-1.27,3.38c-.71,1.81,3.07,2.49,5.05,3.52,1.49.78,2.63,1.73,2.34,3-.36,1.56-2.63,2.49-5.64,3.55-4,1.43-2.51,2.5-1.77,3.88,1.07,2,3.2,4.57,1.79,7-.77,1.32-3.1,2.71-6.14,3.5-1.82.48-4.13.59-5.77,1.3-3.33,1.46-1.89,4.29-2,5.67-.14,2.6-1.81,6.05-9,7.88l.94.26.18-.25c.19-.28-.55-.46-1.14-.21a25.85,25.85,0,0,0-7.23,4.36,32.81,32.81,0,0,1-3.42,3.31c-2.26,1.58-5,1.68-8.07,2a11.18,11.18,0,0,0-5.91,1.88c-1,.79-1.41,1.6-2.32,2.39-1.64,1.44-4.6,2.48-7.95,2.71-.59,0-1.37.42-.94.61l.3.13,1.31-.56c-4.05-.87-8.85,1.05-13.62,1.68-4.26.56-7.65.64-11.55,2.18a42.49,42.49,0,0,1-16.95,2.68,60.91,60.91,0,0,1-8.48-.73c-1.81-.29-3.55-.91-5.93-.72-3.62.28-6.6,1.92-9.66,2.94-6.77,2.26-11.84.18-14.38-1.57-1.39-1-1.7-2.2-3-3.18a4.11,4.11,0,0,0-2.53-.7,24.27,24.27,0,0,0-5.18.69c-4.25.88-7.62,1.45-11.41,1.09l.25.4.19-.15c.18-.14.15-.31-.09-.37-3.85-1-5.77-2.58-6.3-4.69-.31-1.23-.54-2.65-3.6-2.9-1.64-.14-3.53.19-5.3.23-3.89.09-4.44-1.34-2.71-3,1.49-1.4,7.36-3.89,7.11-5.32-.21-1.25-6.41-.49-8.35-.76-6.65-.94-.53-3.72,1-6.06,1.1-1.72-1.87-2-3.17-3.05-2.42-2,4.62-4.67,8.9-6.2,4.49-1.61,8.36-3.3,10.46-5.54,1-1,2.75-3.19-.45-3.17-.92,0-1.39.69-.42.68Z"/><path class="cls-4" d="M364.88,404a20.28,20.28,0,0,1,2.61-1,9.39,9.39,0,0,1,1.31-.37c.47,0,.29-.06.44.15.4.52,1.43.75,2.8.74s1.9-.93.61-.92c-2,0-1-1.35-3.61-.89a23.75,23.75,0,0,0-5.6,1.89c-1.09.52.36.92,1.44.42Z"/><path class="cls-5" d="M402.31,406.15a36.53,36.53,0,0,0-5.06,2c-1.05.53.39.94,1.44.42a32.18,32.18,0,0,1,4.6-1.83c1.29-.4.28-1-1-.61Z"/><path class="cls-4" d="M371.67,434.65a6.21,6.21,0,0,1,3.38-.71,5.16,5.16,0,0,0,2.93-.68c.82-.58-1-.75-1.81-.18.2-.14-.07-.06-.4-.06h-.62a10.37,10.37,0,0,0-2,.2,9.07,9.07,0,0,0-3.32,1.26c-.86.56.95.73,1.81.18Z"/><path class="cls-4" d="M333.56,446.82c.95,1-1.34,2.43-.52,3.45.37.48,2.46,0,2.08-.51-.8-1,1.52-2.45.53-3.45-.46-.45-2.54.06-2.09.51Z"/><path class="cls-4" d="M295.44,456.14a6.93,6.93,0,0,1,3.92-1.4c1.34-.09,2-1,.61-.92-2.49.17-5.13,1-6.34,2.14-.63.58,1.17.76,1.81.18Z"/><path class="cls-4" d="M285.1,442.78a24.51,24.51,0,0,0-5,3.84c-.66.74-.73,1.36.66,1.61,1.07.18,2.19-.73,1.14-.91-1.4-.24,3.9-3.69,4.59-4.12.87-.56-.56-1-1.44-.42Z"/><path class="cls-4" d="M252.26,438.2c.67-.73,3.59-.06,4.36,0a10,10,0,0,0,3.07-.29c1.34-.34.86-1.1-.47-.77-2,.5-3.55-.32-5.44-.16a5.71,5.71,0,0,0-3.56,1.3c-.54.59,1.51.52,2-.07Z"/><path class="cls-4" d="M282.8,423a27.56,27.56,0,0,0-5.42.82c-1.46.38-3.21,1-3.1,1.71.09.53,2.23.23,2.14-.31-.06-.35,1.81-.74,2.47-.88a22.4,22.4,0,0,1,3.3-.42c1.32-.07,1.95-1,.61-.92Z"/><path class="cls-4" d="M270.89,410c1.35-.7,3-1.41,4.36-.9a4.31,4.31,0,0,0,2.76.08c1.32-.35.85-1.12-.47-.77-.36.1-1.32-.35-1.63-.4a8,8,0,0,0-2.06,0,14,14,0,0,0-4.41,1.53c-1,.54.42.95,1.45.42Z"/><path class="cls-4" d="M319.85,403.9c-.31-1.12-4.36.5-5.42,1-1.9.84-4.21,2.24-1.67,2.65,1.08.17,2.22-.74,1.14-.91-.79-.12,1.47-1.1,1.86-1.27s.79-.34,1.2-.49l.47-.17c.54-.1.66-.19.34-.26.14.53,2.23,0,2.08-.51Z"/><path class="cls-4" d="M309.65,398.64l4.41-1.16c1.33-.35.85-1.12-.47-.77l-4.42,1.16c-1.33.35-.86,1.12.48.77Z"/><path class="cls-4" d="M360.87,390.9c-2.73,1.22-4.54,2.66-5.13,4.09-.25.58,1.79.52,2-.07.55-1.29,2.07-2.5,4.53-3.6,1.12-.5-.33-.91-1.44-.42Z"/><path class="cls-4" d="M396.54,396.12a74.13,74.13,0,0,0,7.68-1.43c1.35-.33.87-1.09-.47-.77a69,69,0,0,1-7.14,1.33c-1.37.18-1.45,1.06-.07.87Z"/><path class="cls-5" d="M379.39,423a4.77,4.77,0,0,1,3,.85c.45.44,2.53-.06,2.08-.52a6,6,0,0,0-4-1.24c-1.22-.05-2.37.85-1.14.91Z"/><path class="cls-5" d="M349.53,446.5a35.3,35.3,0,0,0,8.81-.84c1.37-.3.89-1.07-.47-.77a28.84,28.84,0,0,1-7.2.7c-1.22,0-2.38.86-1.14.91Z"/><path class="cls-5" d="M306,444.82q-4.59.68-9.15,1.17c-1.37.15-1.43,1-.07.87,3-.32,6.08-.71,9.15-1.17,1.37-.2,1.45-1.08.07-.87Z"/><path class="cls-5" d="M254,446a17.75,17.75,0,0,0,6.2-.83c1.28-.4.28-1-1-.61a12.18,12.18,0,0,1-4.08.54c-1.2-.08-2.35.83-1.13.9Z"/><path class="cls-5" d="M254,427c-.13.27-.61.49-1,.74a2,2,0,0,0-.85.77c-.2.48.23.9,1.42.82s1.95-1,.61-.92c0,0,.07.08.05,0s0-.11,0-.15a2.46,2.46,0,0,1,.63-.42,2.7,2.7,0,0,0,1.16-1c.27-.58-1.77-.52-2,.07Z"/><path class="cls-5" d="M290.31,412.43a9.72,9.72,0,0,1-4.43,1.89c-1.36.29-.88,1.05.47.77a13.08,13.08,0,0,0,5.77-2.48c.66-.59-1.15-.77-1.81-.18Z"/><path class="cls-5" d="M334.17,393.25c.2-1.25-1.11-2.16-3.45-2.57-1.06-.19-2.19.72-1.14.9,1.75.31,2.6,1.06,2.46,2-.08.56,2,.26,2.13-.31Z"/><path class="cls-5" d="M349.68,403.86c-1,.84-1.15,1.65-.37,2.25.54.43,2.43-.26,1.89-.69s-.34-.88.29-1.38-1.08-.76-1.81-.18Z"/><path class="cls-5" d="M389.32,394.94a21.43,21.43,0,0,1,3.8-1.26c1.35-.33.88-1.09-.47-.77a26.68,26.68,0,0,0-4.77,1.62c-1.1.5.35.91,1.44.41Z"/><path class="cls-6" d="M400.35,419.58a1.83,1.83,0,0,0,.57,1.62,1.46,1.46,0,0,0,1.28.13c.51-.13,1-.45.81-.64a1.56,1.56,0,0,1-.53-1.41c.09-.57-2-.26-2.13.3Z"/><path class="cls-6" d="M382.07,442.32a11.56,11.56,0,0,0-5.21-1.62c-1.14-.13-2.28.77-1.14.9a9.8,9.8,0,0,1,4.45,1.41c.6.4,2.49-.29,1.9-.69Z"/><path class="cls-6" d="M346,437.35c-1.61.7-2.54,1.57-2.67,2.38-.09.57,2,.26,2.14-.3s.81-1.16,2-1.67-.34-.9-1.44-.41Z"/><path class="cls-6" d="M263.38,454.24a18.05,18.05,0,0,0,6,0c1.38-.23,1.46-1.1.08-.87a13.73,13.73,0,0,1-4.5.08c-1-.19-2.62.63-1.58.83Z"/><path class="cls-6" d="M280.28,432c-2.06.49-3.41,1.55-2.95,2.3.3.5,2.39,0,2.08-.51s.41-.8,1.34-1c1.36-.32.88-1.08-.47-.77Z"/><path class="cls-6" d="M267.58,417.53c-.84,1-.21,2,1.57,2.35,1,.21,2.61-.62,1.58-.82-1.27-.26-1.71-.86-1.11-1.59s-1.56-.53-2,.06Z"/><path class="cls-6" d="M293.41,404.17l2.1-1.93c.64-.58-1.17-.77-1.81-.18L291.6,404c-.64.59,1.16.77,1.81.18Z"/><path class="cls-6" d="M332.05,399c.19.66,1.19,1.12,2.62,1.28,1.15.12,2.29-.78,1.14-.91s-1.54-.43-1.68-.88c-.06-.23-.76-.26-1.27-.13s-.88.42-.81.64Z"/><path class="cls-6" d="M375.56,394.66a19.36,19.36,0,0,1,4.19-1.67c1.31-.36.84-1.13-.47-.77a24.14,24.14,0,0,0-5.16,2c-1,.54.47,1,1.44.42Z"/><path class="cls-6" d="M382.18,412.18c-2.39.72-3.41,2.13-2.16,2.81.69.37,2.58-.32,1.89-.69s-.08-1.1,1.25-1.51.29-1-1-.61Z"/><path class="cls-6" d="M412.85,403.55l7.22,1.5c1,.21,2.6-.62,1.57-.83l-7.21-1.49c-1-.21-2.61.61-1.58.82Z"/><path class="cls-7" d="M389.1,431.58a15,15,0,0,0,6.76-1.73c.92-.55-.51-1-1.44-.41a10.23,10.23,0,0,1-4.71,1.22c-1.3,0-1.92.94-.61.92Z"/><path class="cls-7" d="M264.23,429.94c-.38,1.23.65,2.26,2.73,2.77,1,.24,2.55-.58,1.58-.82-1.73-.43-2.49-1.23-2.18-2.25.18-.58-2-.27-2.13.3Z"/><path class="cls-7" d="M264.46,449.46a33.43,33.43,0,0,1,6.69-1.89c1.36-.24,1.45-1.12.07-.88a39.47,39.47,0,0,0-7.75,2.16c-1.16.47-.19,1.08,1,.61Z"/><path class="cls-7" d="M315.05,452c-.07,0-.06,0,0,0l.15,0,.07,0,0,0c.14.08.16.09.21.2s.73.26,1.28.13.91-.43.81-.64-.72-.58-1.47-.69a2.36,2.36,0,0,0-1.47.36c-.31.27-.14.47.34.55Z"/><path class="cls-7" d="M320.85,407.29c-1.43.71-2.25,1.55-2.24,2.31,0,.55,2.15.25,2.14-.3s.51-1.09,1.54-1.6-.4-.93-1.44-.41Z"/><path class="cls-7" d="M312.68,392.78a40.75,40.75,0,0,0,12.47-4.32c.94-.54-.5-1-1.44-.41a35.78,35.78,0,0,1-11,3.86c-1.36.26-1.45,1.14-.07.87Z"/><path class="cls-7" d="M357.17,398.17a12.18,12.18,0,0,0,5.5.71c1.33-.08,2-1,.61-.92a9.81,9.81,0,0,1-4.23-.48c-.76-.33-2.66.36-1.88.69Z"/><path class="cls-7" d="M388,404.45a9.25,9.25,0,0,0-2.38,2.32c-.4.59,1.65.52,2.05-.07a8,8,0,0,1,2.14-2.07c.81-.57-1-.75-1.81-.18Z"/><path class="cls-7" d="M401.38,389.08a2.32,2.32,0,0,0,0,2.46c.3.5,2.39,0,2.08-.51a1.93,1.93,0,0,1,0-2c.31-.59-1.74-.52-2.05.07Z"/><path class="cls-7" d="M358.23,450.45a38,38,0,0,1,3.89-2.27c1-.53-.41-.94-1.43-.41a39.26,39.26,0,0,0-4.26,2.5c-.84.57,1,.74,1.8.18Z"/><path class="cls-7" d="M288.51,418.11l1,1.48c.33.49,2.42,0,2.08-.52l-1-1.47c-.33-.48-2.41,0-2.08.51Z"/><path class="cls-8" d="M399.32,415.42a13.4,13.4,0,0,1,5.62.21c.91.28,2.49-.55,1.58-.82a17.33,17.33,0,0,0-7.14-.26c-1.37.18-1.45,1.06-.06.87Z"/><path class="cls-8" d="M354.36,439.39c.3,1.06,1.93,1.78,4.32,1.94,1.2.09,2.34-.82,1.14-.9-2-.14-3.13-.69-3.38-1.55-.14-.53-2.22,0-2.08.51Z"/><path class="cls-8" d="M315.57,447a13,13,0,0,0,5.11-3c.57-.59-1.48-.52-2,.07a10.84,10.84,0,0,1-4.06,2.28c-1.24.44-.25,1,1,.61Z"/><path class="cls-8" d="M284.52,436.77c1.55-.14,3.06-.2,4.52-.19,1.28,0,1.89-.92.61-.92-1.64,0-3.32.08-5.07.23-1.34.12-1.4,1-.06.88Z"/><path class="cls-8" d="M266,440c-1.8.77-2.7,1.73-2.28,2.54.27.5,2.35,0,2.08-.51s.21-1,1.18-1.41c1.13-.49.15-1.1-1-.62Z"/><path class="cls-8" d="M279.7,412.14a21.94,21.94,0,0,0-6.35.08c-1.37.19-1.44,1.07-.07.87a17.68,17.68,0,0,1,5.28,0c1.09.17,2.22-.74,1.14-.91Z"/><path class="cls-8" d="M307.26,406.47q.84-2.28,1.92-4.59c.27-.58-1.77-.52-2,.07-.76,1.62-1.43,3.22-2,4.83-.21.58,1.92.27,2.14-.31Z"/><path class="cls-8" d="M351.47,391.37c-2.42.16-4.84.31-7.26.49a9.62,9.62,0,0,0-4.06.9c-.93.55.51,1,1.44.41s3.75-.51,4.77-.58l4.5-.3c1.33-.09,2-1,.61-.92Z"/><path class="cls-8" d="M335.22,405.16l2.57,1.82c.59.41,2.48-.28,1.89-.69l-2.57-1.82c-.57-.42-2.47.28-1.89.69Z"/><path class="cls-8" d="M380,399.11c-1.29.95-1.69,1.93-1.15,2.73.33.49,2.42,0,2.08-.51s-.11-1.31.88-2c.79-.58-1-.75-1.81-.18Z"/><path class="cls-8" d="M367.06,413.42a21.46,21.46,0,0,1,4.41,1.25c.78.33,2.68-.36,1.89-.69a22.34,22.34,0,0,0-4.73-1.38c-1-.19-2.63.63-1.57.82Z"/><path class="cls-8" d="M280.25,455.28l2.4.23,1.2.11a3.26,3.26,0,0,0,1.36-.08c-1.36.25-1.44,1.12-.07.87s2.28-1,1.48-1.4a6.78,6.78,0,0,0-2-.33l-3.2-.31c-1.17-.11-2.32.79-1.14.91Z"/><path class="cls-8" d="M375.35,387.45q3.58,1,7,2.11l1.09-.87-1.07,0c-1.32,0-1.94,1-.61.92l1.07,0c1,0,1.77-.66,1.1-.88-2.27-.73-4.59-1.44-7-2.11-.93-.26-2.51.56-1.57.83Z"/><path class="cls-8" d="M413.94,392.47c-2.54,1-3.53,2.51-2,3.31.7.37,2.6-.32,1.89-.69-.91-.48-.49-1.39,1.09-2,1.19-.46.21-1.08-1-.61Z"/><path class="cls-8" d="M333.29,456.29c-.21,0-.07,0,0,0a1,1,0,0,1,.18-.1,8,8,0,0,1,1.32-.32c.57-.11.92-.45.8-.63s-.7-.24-1.27-.13a6.8,6.8,0,0,0-2.86,1c-.55.47-.36,1,.7,1.07a2.49,2.49,0,0,0,1.48-.36c.27-.23.18-.53-.34-.55Z"/><polygon class="cls-9" points="118.17 265.79 119.69 49.89 694.98 45.45 695.5 267.36 118.17 265.79"/><polygon class="cls-9" points="63.16 234.39 63.16 3.76 119.69 49.89 118.17 265.79 63.16 234.39"/><polygon class="cls-9" points="695.5 267.36 655.48 235.27 655.48 3.76 694.98 45.45 695.5 267.36"/><polygon class="cls-9" points="63.16 3.76 655.48 3.76 655.48 45.45 119.69 49.89 63.16 3.76"/><polygon class="cls-1" points="2.58 468.72 118.17 265.79 118.17 324.34 36.37 469.75 2.58 468.72"/><polygon class="cls-10" points="580.6 468.72 36.37 469.75 119.56 323.72 696.37 324.97 580.6 468.72"/><path class="cls-2" d="M268.91,336.88c-28.49,22.66-88.27,37.39-133.54,32.91s-58.89-26.5-30.4-49.16,88.27-37.39,133.54-32.91S297.39,314.22,268.91,336.88ZM202.1,316.69c-15.64-1.55-36.3,3.54-46.15,11.37s-5.14,15.43,10.51,17,36.31-3.54,46.15-11.38S217.75,318.24,202.1,316.69Z"/><path class="cls-2" d="M268,322c-28.48,22.66-88.27,37.39-133.54,32.9s-58.89-26.49-30.4-49.15,88.27-37.4,133.54-32.91S296.5,299.36,268,322Zm-66.81-20.2c-15.64-1.55-36.3,3.54-46.15,11.37s-5.14,15.44,10.51,17,36.31-3.54,46.15-11.37S216.86,303.37,201.21,301.82Z"/><path class="cls-3" d="M197.58,301.85c-.74.43.06.86,1.1.81a20.23,20.23,0,0,0,3.18-.61,5.25,5.25,0,0,1,2.86-.06.86.86,0,0,1,.31.44c.59,1.23,3.86,1.77,7.21,1.18,2.16-.39,4.65-1.19,6.29-.88,1.32.26,1.2,1.11.72,1.86-.77,1.21-2.15,2.43-2.69,3.62s0,2.41,2.33,2.68c1.7.2,4.14-.14,5.35.34,1.47.59.14,1.93-1.43,3a46.64,46.64,0,0,1-8.55,4.25c-2.91,1.12-6.49,2.35-7,3.77-.4,1,.93,1.78.29,2.79-.95,1.51-5.36,2.5-8.85,2.93s-7.57.87-10,2.27c-1.56.92-1.87,2-3.38,2.92-2.45,1.52-7.21,2.05-10.14,1.57a14.47,14.47,0,0,1-6.2-2.76,13.08,13.08,0,0,0-7-2.32c-4.49-.2-10.44,1.3-14.37.65-.36-.06-.7-.15-.78-.31s.15-.42.4-.64c1.22-1.06,2.56-2.14,3-3.19s-.26-2.09-2.36-2.3c-1.58-.16-3.87.13-4.71-.41-.55-.36-.21-1,.22-1.49a27.83,27.83,0,0,1,8.33-6.54c3.13-1.74,7.17-3.65,7.05-5.41-.06-.87-1.16-1.66,0-2.58,1.41-1.14,4.76-1.46,7.41-1.7a73.33,73.33,0,0,0,14.54-2.83c1.33-.41,2.81-1,2.87-1.57,0-.24-.21-.44,0-.69a4.17,4.17,0,0,1,2.06-.72c5.87-1,11.41.18,11.89,2.46m-86,6.46c1-.16,1.35.37,1.22.8-.53,1.8-2.85,3.78-6.26,5.36-3.14,1.44-7,2.52-10.26,3.93s-5.74,3.49-4.19,4.71c.87.68,2.85,1,3.35,1.74.94,1.48-3.76,3.51-4.25,5.24-.27,1,.88,1.72,2.59,2.08a26.32,26.32,0,0,0,6.17.28c1.2-.05,2.7-.05,2.72.45,0,.16-.16.33-.34.5-1.56,1.47-4.38,2.79-6.23,4.23s-2.36,3.28.35,3.69c2.25.34,5.64-.45,7.94-.15,2.69.36,2.55,2,2.91,3.23.52,1.91,2.82,3.45,6.36,4.3l-.19.15a29.59,29.59,0,0,0,9-.49c3.25-.65,7.24-1.78,9.25-1.05a2.06,2.06,0,0,1,1.16,1.12,10.59,10.59,0,0,0,5,3.83,17.54,17.54,0,0,0,10.49.84c4.4-1,8.18-3.56,12.35-3.56a13.83,13.83,0,0,1,2.93.4,61.17,61.17,0,0,0,13,1.09,41.36,41.36,0,0,0,13.58-2.12c1.12-.43,2.12-.93,3.3-1.31,3.53-1.16,7.57-1,11.4-1.73,1.95-.35,3.83-.9,5.77-1.28a12.56,12.56,0,0,1,5.35-.14l-.3-.14c3.07-.11,6.64-1.21,8.37-2.56s2.11-3.13,5.24-4c2.34-.66,4.8-.34,7.25-.82a11.16,11.16,0,0,0,4.31-1.83,15.29,15.29,0,0,0,2.37-2.29,22.26,22.26,0,0,1,8-5.21l-.18.25c5-1.14,8.19-3.7,9.11-5.85s.23-4.13.72-6.24a2.05,2.05,0,0,1,1.33-1.51,15.78,15.78,0,0,1,3.62-.82c3.64-.62,7.08-2.16,8.34-3.73a3.27,3.27,0,0,0,.38-3.38,25.43,25.43,0,0,0-2.62-5.67c-.15-.26-.32-.53-.14-.83.48-.84,2.89-1.38,4.61-2,3.43-1.26,4.44-3.29,3.45-4.65s-3.52-2.23-5.76-3.16a2.86,2.86,0,0,1-1.41-.92c-.33-.64.5-1.46,1-2.21,1.31-2.05-.09-4-3.5-4.77-2.31-.55-5.48-.65-7-1.57s-1-2.3-2.53-3.13c-1.84-1-6.57-.75-9.67.56l.4-.45a41,41,0,0,1-8,2.22,8.82,8.82,0,0,1-2.5.17,2.48,2.48,0,0,1-1.2-.52l-5.22-3.79a6.19,6.19,0,0,0-2.94-1.31,8.71,8.71,0,0,0-4.87.74c-.88.5-1,1.1-1.83,1.62a10.14,10.14,0,0,1-4.71,1.13,21.16,21.16,0,0,1-4.27-.46,105.78,105.78,0,0,0-14-1.39,9.2,9.2,0,0,0-3,.26c-2.07.63-1.68,1.93-3.45,2.73l-9.67-.84-.58-.19a49.56,49.56,0,0,0-12.56-.46c-4.64.45-9.77,1.8-12.71,3.72-2.17,1.42-2.95,3-2.77,4.36.1.79.49,1.58-.33,2.44-1.11,1.16-4.09,2.07-6.77,2.43a71.19,71.19,0,0,1-7.77.37,29.38,29.38,0,0,0-7.89,1.08c-1.55.49-2.92,1.25-3.1,1.95-.09.34.12.65-.08,1-.43.79-2.55,1.42-4.38,1.74a28.65,28.65,0,0,0-5.36,1.17,7.74,7.74,0,0,0-3.17,2.55,21,21,0,0,1-7.47,4.58,12,12,0,0,0-2.66,1.24c-.93.7-.58,1.43.4,1.84a14.9,14.9,0,0,0,3.87.67"/><path d="M196.81,301.88c-1,1.05,1,1.21,3,1,1.35-.17,3.54-.68,4.38-.34.28.12.31.48.53.65a5.89,5.89,0,0,0,2.82,1,16.37,16.37,0,0,0,3.76,0c.7-.09,1.37-.23,2.06-.36s1.25-.32,1.81-.38c1.63-.19,3.42.29,3.45.95.06,1-1.94,2.42-2.55,3.44a2.3,2.3,0,0,0-.38,2A2.35,2.35,0,0,0,217.3,311c1.22.38,2.79.15,4.22.32,4.23.51,1.7,2.23-.91,3.75a52.14,52.14,0,0,1-7.21,3.35c-2.84,1.1-6.43,2.38-7,3.93-.32.88,1.15,1.82.33,2.7-1.65,1.76-6.18,2.34-9.53,2.76-3.11.4-6.72.92-9.07,2.27-1.42.81-1.7,1.69-2.85,2.53-2.34,1.72-6.72,2.2-9.65,1.75-4.28-.66-5.5-2.81-8.55-4-2.28-.92-5.15-1.19-9-.87-2.26.19-4.61.55-6.82.64-1.34.05-3.54.07-3.43-.68,0-.38,1.42-1.22,1.83-1.64,1.38-1.4,2.2-3,.15-3.87a11.59,11.59,0,0,0-2.81-.44c-1.69-.2-3.17-.62-2.94-1.52.18-.71,1.53-1.71,2.36-2.43,2.78-2.41,7.06-4.36,10.5-6.63a6,6,0,0,0,2.47-2.45,1.51,1.51,0,0,0,0-.94c0-.14-.12-.26-.16-.4-.24-.88-.71-1.08,1.47-1.95,2.65-1.06,5.19-1,8.17-1.4,2.34-.31,4.69-.73,7-1.25a42.93,42.93,0,0,0,6.58-1.89c1.52-.66,1.1-.9,1.81-1.56,1.6-1.46,6.35-1.21,8.38-.85,2.3.42,3.65,1.24,4,2.38.12.39,1.69,0,1.56-.39-.49-1.45-2.55-2.47-5.75-2.82-2-.22-6.83-.33-9,.8a3,3,0,0,0-.74.59c-1,.94-.89,1.46-3.32,2.17a70,70,0,0,1-9.87,2.09c-3.27.46-8.16.45-10.9,2-1,.58-1.28,1.19-1.2,1.74s.49.91.5,1.42c0,.95-1.27,2-2.77,2.89-3.82,2.36-7.94,4.36-10.67,6.91-1.37,1.28-4,3.52-1.13,4.09a27.58,27.58,0,0,0,3.09.15c2.14.13,3.19.7,3.05,1.7-.13.84-1.12,1.75-2.06,2.61-.42.38-1.24.88-1.36,1.26-.42,1.4,4.26,1.1,6.72.89s4.77-.58,7-.64a13.49,13.49,0,0,1,8.43,2.24c2,1.27,4,2.82,8.18,3,3,.13,7-.49,9.41-1.91,1.95-1.13,2-2.49,4.67-3.52s5.91-1.19,8.63-1.57c3.4-.48,8-1.5,9.12-3.21.61-1-.46-1.59-.34-2.46.26-1.8,5.19-3.19,8.29-4.5,3.44-1.44,7.7-3.46,9.07-5.32,1.93-2.62-4-1.54-6.72-2.38-4.82-1.52,3.43-5.26,1.61-7.35-1.48-1.7-7.16.53-10.39.54-2.14,0-3.36-.52-4-1.27-.26-.31-.23-.48-.86-.64a4.53,4.53,0,0,0-1.86-.07c-.65.06-5.55,1.19-4.74.3.4-.44-1.14-.39-1.54.05Z"/><path d="M111.27,309.14c1.13,0,.18,1.59-.14,2A9.93,9.93,0,0,1,109,313a35.46,35.46,0,0,1-8.06,3.67c-3.43,1.22-6.89,2.46-8.91,4.15-1.47,1.24-1.79,2.45-.33,3.27s3.6,1.13,2.41,2.69c-.66.86-2.07,1.7-2.91,2.55-1.4,1.4-1.16,2.58.88,3.31a15.06,15.06,0,0,0,4.26.64,30.28,30.28,0,0,1,3.27,0c.8.17,1.23,1,.93,1.35a12.11,12.11,0,0,1-2.29,1.49c-2.27,1.41-4.54,2.86-4.59,4.34,0,1.19,1.56,1.83,4.32,1.77,3.43-.08,6.86-.71,7.85.89.54.86.42,1.88.91,2.75a6.21,6.21,0,0,0,2.54,2.27c.44.24,3.11,1.35,3.4,1.12-.23.18-.11.38.25.41a30.85,30.85,0,0,0,6.43-.05c2.74-.31,5.32-1.14,8-1.5,4.57-.6,4.67,1.42,5.87,2.54a12.41,12.41,0,0,0,3.12,2,17.39,17.39,0,0,0,8.75,1.62c3.91-.24,6.8-1.63,10.09-2.81A14.18,14.18,0,0,1,164,351a57.42,57.42,0,0,0,7.37.82,60.81,60.81,0,0,0,13-.58c4.76-.79,8-2.9,12.64-3.59,2.27-.34,4.49-.42,6.76-.77,3.77-.57,8.22-2.29,11.52-1.59.62.13,1.85-.32,1.31-.57l-.3-.13-.95.6a19.83,19.83,0,0,0,8.57-2.35A9.32,9.32,0,0,0,226,340.9a6.64,6.64,0,0,1,2.11-1.9c1.94-1,3.78-.83,5.76-1a14.58,14.58,0,0,0,7.51-2.37,36.1,36.1,0,0,0,3.42-3.3,23.16,23.16,0,0,1,6.61-4l-1.14-.21-.17.25c-.18.26.36.41.94.27,4.4-1.12,7.32-2.93,8.88-4.84,2.11-2.59.65-4.72,1.48-7.17.72-2.07,4.26-2.15,7.41-3.13a16.61,16.61,0,0,0,5-2.39c2.84-2.2,1.49-4.35.76-6.17-.46-1.17-1.55-2.31-1.73-3.52a1.73,1.73,0,0,1,1-1.95,18.62,18.62,0,0,1,1.87-.62,15.68,15.68,0,0,0,2.9-1.26c2.6-1.58,2.71-3.36,1.45-4.58a14.26,14.26,0,0,0-4.16-2.27c-1.6-.67-3-1.2-2.26-2.48a14.31,14.31,0,0,0,.91-1.44c.86-2-.64-3.72-3.94-4.53-2.69-.66-6.34-.71-7.52-2.1-.78-.93-.66-2.11-2.35-2.76-2.4-.93-6.89-.49-10.28.8l1.14.2.4-.44c.27-.3-.57-.42-1.14-.2a42.1,42.1,0,0,1-5.69,1.74c-3.93.88-5.26-.17-6.64-1.17-1.57-1.14-2.86-2.6-5.11-3.49a9.39,9.39,0,0,0-5.37-.23c-3.88.87-4,3.42-8.87,3.23-3.9-.16-7.22-1.08-11-1.41-2.34-.2-5.81-.75-8.68-.27s-2.4,1.31-3.72,2.2-3.47.4-5,.27c-1.87-.17-3.7-.33-5.4-.61a48.23,48.23,0,0,0-17.7.29c-6,1.29-10.45,3.69-11.38,6.27-.59,1.61,1.52,3.6-2.89,5.12s-8.92,1-13.1,1.26a26.9,26.9,0,0,0-6.53,1.11c-2.83.93-3,1.65-3.54,2.79-.88,2-7.13,2-10,3.37a7.54,7.54,0,0,0-2.47,2,16.09,16.09,0,0,1-4.52,3.46c-2.13,1.14-6.15,2.22-6.6,3.61s2.59,1.86,5.13,2.11c.88.08,1.73-.6.85-.68-2.4-.23-6.27-.7-3.41-2.46a29.93,29.93,0,0,1,2.87-1.19,26.13,26.13,0,0,0,5-2.8c1.85-1.38,2.46-3.37,6-4.31,1.92-.51,4-.58,5.89-1.18a5.42,5.42,0,0,0,2.76-1.53c.37-.55.15-.82.67-1.42,1-1.13,3.16-1.68,5.64-2,4.63-.59,8.71,0,13.47-.95,3.36-.69,5.94-1.95,6.34-3.4.32-1.19-.46-2.16.19-3.42.72-1.41,2.55-2.77,5.44-3.86a40.65,40.65,0,0,1,17.17-2c2,.18,3.67.59,5.65.77,2.8.27,5.64.5,8.46.74a1.89,1.89,0,0,0,1-.18,7.31,7.31,0,0,0,1.38-1.05c.77-.66.08-.4,1.88-1.17s2.23-.59,4.07-.51a101.62,101.62,0,0,1,10.54,1.05c2.93.45,8.24,1.58,11.73-.69.3-.2.43-.43.72-.63.92-.48,1.85-1,2.76-1.45l2.72.13a6.57,6.57,0,0,1,2.91,1.73c1.54,1.11,2.75,2.56,4.85,3.47,2.6,1.12,9.22-1.05,12.26-2.21l-1.14-.2-.4.44c-.27.3.57.42,1.14.2,2.68-1,6.15-1.4,8.12-.69,1.63.58,1.52,1.71,2.2,2.58,1.29,1.62,5.28,1.6,8.25,2.43,1.88.53,3,1.38,3.31,2.43s-.81,2.21-1.27,3.38c-.71,1.8,3.08,2.49,5.06,3.52,1.48.78,2.62,1.73,2.33,3-.36,1.56-2.63,2.49-5.63,3.55-4,1.43-2.51,2.49-1.78,3.88,1.08,2,3.21,4.57,1.79,7-.77,1.33-3.09,2.72-6.13,3.51-1.82.48-4.13.59-5.77,1.3-3.33,1.46-1.89,4.29-2,5.67-.15,2.59-1.81,6.05-9,7.87l.95.27.17-.26c.2-.27-.54-.45-1.14-.2a26,26,0,0,0-7.23,4.36,30.74,30.74,0,0,1-3.41,3.3c-2.27,1.59-5,1.69-8.07,2a11.13,11.13,0,0,0-5.92,1.88c-1,.79-1.4,1.6-2.31,2.39-1.65,1.44-4.61,2.48-7.95,2.71-.6,0-1.37.42-.95.61l.31.13,1.3-.57c-4.05-.86-8.84,1.06-13.62,1.69-4.26.56-7.64.64-11.54,2.18a42.54,42.54,0,0,1-17,2.68,60.76,60.76,0,0,1-8.47-.73,21.83,21.83,0,0,0-5.94-.73c-3.61.28-6.59,1.93-9.65,2.95-6.78,2.26-11.85.18-14.38-1.57-1.39-1-1.7-2.21-3-3.18a4.1,4.1,0,0,0-2.54-.7,23.73,23.73,0,0,0-5.18.69c-4.24.87-7.61,1.45-11.41,1.09l.25.4.19-.15c.19-.14.16-.31-.09-.37-3.84-1-5.77-2.58-6.3-4.69-.3-1.23-.53-2.65-3.59-2.9-1.65-.14-3.53.19-5.3.23-3.89.09-4.44-1.35-2.71-3,1.49-1.4,7.36-3.89,7.11-5.33-.22-1.24-6.42-.48-8.35-.76-6.65-.93-.53-3.72,1-6.05,1.1-1.73-1.87-2-3.17-3.05-2.42-2,4.62-4.68,8.89-6.2,4.49-1.61,8.37-3.3,10.47-5.54,1-1,2.75-3.19-.45-3.17-.93,0-1.39.69-.43.68Z"/><path class="cls-4" d="M219,295.67a20.12,20.12,0,0,1,2.6-1,8.62,8.62,0,0,1,1.32-.37c.46,0,.28-.06.44.15.39.52,1.43.74,2.79.74s1.91-.93.62-.92c-2,0-1-1.35-3.61-.9a23.3,23.3,0,0,0-5.6,1.9c-1.09.51.36.92,1.44.42Z"/><path class="cls-5" d="M256.45,297.78a34.33,34.33,0,0,0-5.07,2c-1,.53.4.94,1.44.42a32.32,32.32,0,0,1,4.61-1.83c1.29-.4.28-1-1-.61Z"/><path class="cls-4" d="M225.81,326.27a6.26,6.26,0,0,1,3.37-.7,5.3,5.3,0,0,0,2.94-.68c.81-.58-1-.75-1.81-.18.2-.14-.07-.06-.41-.06h-.61a10.55,10.55,0,0,0-2,.2,9.2,9.2,0,0,0-3.31,1.25c-.86.57.95.74,1.81.18Z"/><path class="cls-4" d="M187.7,338.45c1,1-1.34,2.42-.53,3.45.37.48,2.46,0,2.08-.51-.79-1,1.52-2.45.53-3.45-.45-.45-2.53.06-2.08.51Z"/><path class="cls-4" d="M149.57,347.76a7,7,0,0,1,3.93-1.39c1.33-.09,2-1,.61-.92-2.5.17-5.14,1-6.34,2.13-.64.59,1.17.77,1.8.18Z"/><path class="cls-4" d="M139.24,334.41a24.25,24.25,0,0,0-5,3.84c-.65.74-.72,1.36.67,1.6,1.06.19,2.19-.72,1.14-.9-1.4-.25,3.9-3.69,4.59-4.13.87-.55-.56-1-1.44-.41Z"/><path class="cls-4" d="M106.4,329.83c.67-.73,3.58-.06,4.36,0a10,10,0,0,0,3.07-.29c1.33-.34.86-1.11-.48-.77-2,.5-3.54-.32-5.44-.17a5.76,5.76,0,0,0-3.55,1.31c-.55.59,1.5.52,2-.07Z"/><path class="cls-4" d="M136.94,314.64a26.73,26.73,0,0,0-5.42.82c-1.46.38-3.22,1-3.1,1.7.09.54,2.22.24,2.13-.3-.05-.35,1.82-.74,2.48-.88a21.16,21.16,0,0,1,3.29-.42c1.33-.07,2-1,.62-.92Z"/><path class="cls-4" d="M125,301.6c1.36-.7,3-1.41,4.37-.9a4.31,4.31,0,0,0,2.76.08c1.32-.36.85-1.12-.47-.77-.36.1-1.32-.36-1.63-.4a7.64,7.64,0,0,0-2.07,0,13.56,13.56,0,0,0-4.4,1.53c-1,.53.42.95,1.44.42Z"/><path class="cls-4" d="M174,295.53c-.31-1.13-4.36.5-5.42,1-1.9.84-4.21,2.24-1.68,2.64,1.09.18,2.22-.73,1.14-.9-.78-.13,1.47-1.1,1.87-1.28s.79-.33,1.2-.48l.46-.17c.55-.1.66-.19.34-.26.15.53,2.23,0,2.09-.51Z"/><path class="cls-4" d="M163.78,290.27l4.42-1.16c1.32-.35.85-1.12-.48-.77l-4.41,1.16c-1.33.35-.86,1.12.47.77Z"/><path class="cls-4" d="M215,282.53c-2.73,1.22-4.54,2.66-5.14,4.09-.24.58,1.8.52,2-.07.54-1.29,2.07-2.5,4.53-3.6,1.12-.5-.34-.91-1.44-.42Z"/><path class="cls-4" d="M250.68,287.75c2.58-.35,5.15-.83,7.68-1.43,1.35-.33.87-1.1-.48-.77a68.53,68.53,0,0,1-7.14,1.33c-1.36.18-1.44,1.06-.06.87Z"/><path class="cls-5" d="M233.53,314.58a4.77,4.77,0,0,1,3,.84c.45.45,2.54-.06,2.09-.51a6,6,0,0,0-4-1.24c-1.22-.05-2.37.85-1.13.91Z"/><path class="cls-5" d="M203.67,338.13a35.82,35.82,0,0,0,8.81-.84c1.36-.3.88-1.07-.47-.77a29.36,29.36,0,0,1-7.2.7c-1.23,0-2.38.86-1.14.91Z"/><path class="cls-5" d="M160.09,336.45q-4.59.68-9.16,1.17c-1.36.15-1.43,1-.07.87q4.56-.48,9.15-1.17c1.38-.2,1.46-1.08.08-.87Z"/><path class="cls-5" d="M108.13,337.6a17.72,17.72,0,0,0,6.2-.83c1.28-.4.28-1-1-.61a11.83,11.83,0,0,1-4.07.53c-1.21-.07-2.35.84-1.14.91Z"/><path class="cls-5" d="M108.14,318.65c-.12.28-.61.5-1,.75a2,2,0,0,0-.84.77c-.2.47.23.89,1.41.82s2-1,.61-.92c0,0,.08.08.06,0s0-.11,0-.16a2.75,2.75,0,0,1,.63-.41,2.66,2.66,0,0,0,1.15-1c.28-.58-1.77-.52-2,.06Z"/><path class="cls-5" d="M144.45,304.05A9.72,9.72,0,0,1,140,306c-1.37.28-.88,1.05.47.77a13.14,13.14,0,0,0,5.77-2.49c.65-.58-1.15-.77-1.81-.18Z"/><path class="cls-5" d="M188.31,284.88c.19-1.25-1.12-2.16-3.45-2.57-1.06-.19-2.19.72-1.14.9,1.74.31,2.59,1.06,2.45,2-.08.56,2.06.26,2.14-.31Z"/><path class="cls-5" d="M203.82,295.49c-1,.84-1.15,1.65-.38,2.25.54.43,2.43-.27,1.9-.69s-.34-.88.28-1.38-1.07-.76-1.8-.18Z"/><path class="cls-5" d="M243.46,286.57a21.43,21.43,0,0,1,3.8-1.26c1.35-.33.87-1.09-.48-.77a26.3,26.3,0,0,0-4.76,1.62c-1.1.5.35.9,1.44.41Z"/><path class="cls-6" d="M254.49,311.21a1.81,1.81,0,0,0,.57,1.62,1.46,1.46,0,0,0,1.28.13c.51-.13,1-.45.8-.64a1.58,1.58,0,0,1-.52-1.41c.09-.57-2.05-.27-2.13.3Z"/><path class="cls-6" d="M236.2,333.94a11.65,11.65,0,0,0-5.21-1.61c-1.14-.14-2.27.77-1.13.9a9.84,9.84,0,0,1,4.44,1.4c.6.41,2.49-.28,1.9-.69Z"/><path class="cls-6" d="M200.09,329c-1.61.71-2.53,1.58-2.66,2.39-.09.56,2,.26,2.13-.31s.82-1.15,2-1.66-.33-.9-1.44-.42Z"/><path class="cls-6" d="M117.52,345.87a18.05,18.05,0,0,0,6,0c1.37-.23,1.45-1.1.07-.88a13.42,13.42,0,0,1-4.49.09c-1-.19-2.62.63-1.58.83Z"/><path class="cls-6" d="M134.42,323.58c-2.07.48-3.41,1.55-2.95,2.3.3.49,2.39,0,2.08-.51s.41-.8,1.34-1c1.35-.32.88-1.08-.47-.77Z"/><path class="cls-6" d="M121.71,309.16c-.84,1-.2,2,1.58,2.35,1,.2,2.61-.62,1.58-.82-1.27-.26-1.71-.86-1.12-1.59s-1.55-.53-2,.06Z"/><path class="cls-6" d="M147.55,295.8l2.1-1.93c.64-.59-1.17-.77-1.81-.18l-2.1,1.93c-.64.59,1.16.77,1.81.18Z"/><path class="cls-6" d="M186.19,290.64c.19.66,1.18,1.12,2.62,1.27,1.14.13,2.28-.77,1.13-.9-1-.11-1.54-.43-1.67-.89-.06-.22-.76-.25-1.28-.12s-.87.42-.8.64Z"/><path class="cls-6" d="M229.7,286.28a18.87,18.87,0,0,1,4.19-1.66c1.31-.36.84-1.13-.48-.77a23.33,23.33,0,0,0-5.15,2c-1,.54.46,1,1.44.41Z"/><path class="cls-6" d="M236.32,303.81c-2.39.72-3.41,2.12-2.17,2.81.69.37,2.59-.32,1.9-.69s-.08-1.11,1.24-1.51.3-1-1-.61Z"/><path class="cls-6" d="M267,295.18l7.21,1.5c1,.21,2.6-.62,1.58-.83l-7.22-1.49c-1-.21-2.6.61-1.57.82Z"/><path class="cls-7" d="M243.23,323.2a14.85,14.85,0,0,0,6.76-1.72c.93-.55-.5-1-1.44-.42a10,10,0,0,1-4.7,1.22c-1.31,0-1.93,1-.62.92Z"/><path class="cls-7" d="M118.36,321.57c-.37,1.23.66,2.25,2.74,2.77,1,.24,2.55-.59,1.57-.82-1.72-.43-2.48-1.23-2.17-2.25.17-.58-2-.28-2.14.3Z"/><path class="cls-7" d="M118.6,341.09a32.79,32.79,0,0,1,6.69-1.9c1.36-.23,1.45-1.11.07-.87a39.27,39.27,0,0,0-7.75,2.16c-1.17.47-.19,1.08,1,.61Z"/><path class="cls-7" d="M169.18,343.66h0l.16,0,.07,0h0c.15.09.16.1.22.21s.73.26,1.28.13.91-.43.8-.64-.71-.58-1.47-.69a2.36,2.36,0,0,0-1.47.36c-.3.27-.14.47.34.54Z"/><path class="cls-7" d="M175,298.91c-1.43.72-2.25,1.56-2.24,2.32,0,.55,2.14.25,2.13-.3s.52-1.09,1.54-1.6-.39-.94-1.43-.42Z"/><path class="cls-7" d="M166.81,284.41a40.83,40.83,0,0,0,12.47-4.32c.94-.55-.49-1-1.44-.41a35.88,35.88,0,0,1-11,3.86c-1.36.26-1.45,1.13-.08.87Z"/><path class="cls-7" d="M211.3,289.8a12.25,12.25,0,0,0,5.51.71c1.33-.09,2-1,.61-.92a9.79,9.79,0,0,1-4.23-.48c-.76-.33-2.67.36-1.89.69Z"/><path class="cls-7" d="M242.14,296.08a9.34,9.34,0,0,0-2.37,2.31c-.4.6,1.65.53,2-.06a8.17,8.17,0,0,1,2.14-2.07c.81-.57-1-.75-1.81-.18Z"/><path class="cls-7" d="M255.51,280.7a2.36,2.36,0,0,0,0,2.47c.3.49,2.39,0,2.08-.51a2,2,0,0,1,0-2c.31-.59-1.73-.53-2.05.06Z"/><path class="cls-7" d="M212.37,342.08a38,38,0,0,1,3.89-2.27c1-.53-.41-.94-1.44-.41a39.26,39.26,0,0,0-4.26,2.5c-.83.56,1,.74,1.81.18Z"/><path class="cls-7" d="M142.65,309.74l1,1.48c.33.48,2.41,0,2.08-.52l-1-1.47c-.33-.49-2.42,0-2.08.51Z"/><path class="cls-8" d="M253.45,307a13.6,13.6,0,0,1,5.63.22c.91.28,2.49-.55,1.58-.82a17.37,17.37,0,0,0-7.15-.26c-1.36.18-1.44,1.06-.06.86Z"/><path class="cls-8" d="M208.5,331c.3,1.06,1.93,1.77,4.32,1.94,1.19.09,2.34-.82,1.13-.9-2-.14-3.13-.69-3.37-1.55-.14-.53-2.22,0-2.08.51Z"/><path class="cls-8" d="M169.7,338.65a13.05,13.05,0,0,0,5.12-3c.56-.59-1.49-.52-2,.07a10.68,10.68,0,0,1-4.06,2.28c-1.23.44-.24,1,1,.61Z"/><path class="cls-8" d="M138.65,328.39q2.32-.19,4.53-.18c1.28,0,1.89-.92.61-.92-1.64,0-3.32.08-5.07.23-1.35.12-1.41,1-.07.87Z"/><path class="cls-8" d="M120.14,331.62c-1.79.77-2.7,1.73-2.27,2.54.26.5,2.35,0,2.08-.52s.21-1,1.18-1.41c1.12-.48.15-1.09-1-.61Z"/><path class="cls-8" d="M133.83,303.77a21.87,21.87,0,0,0-6.34.08c-1.37.19-1.45,1.06-.07.87a17.7,17.7,0,0,1,5.28-.05c1.08.18,2.21-.73,1.13-.9Z"/><path class="cls-8" d="M161.39,298.1c.56-1.52,1.21-3.05,1.93-4.59.27-.58-1.78-.52-2,.07-.76,1.61-1.42,3.22-2,4.82-.22.59,1.92.28,2.13-.3Z"/><path class="cls-8" d="M205.61,283c-2.42.17-4.84.32-7.26.5a9.62,9.62,0,0,0-4.06.9c-.93.55.5,1,1.43.41s3.76-.51,4.78-.58l4.5-.31c1.33-.08,2-1,.61-.92Z"/><path class="cls-8" d="M189.36,296.79l2.57,1.82c.58.41,2.47-.28,1.89-.69l-2.57-1.82c-.58-.42-2.47.27-1.89.69Z"/><path class="cls-8" d="M234.16,290.74c-1.29.95-1.69,1.93-1.15,2.73.33.49,2.41,0,2.08-.51s-.11-1.31.87-2c.79-.58-1-.75-1.8-.18Z"/><path class="cls-8" d="M221.19,305.05a21.11,21.11,0,0,1,4.41,1.25c.78.33,2.69-.36,1.9-.69a21.7,21.7,0,0,0-4.74-1.38c-1-.19-2.62.63-1.57.82Z"/><path class="cls-8" d="M134.38,346.91l2.41.22,1.2.12a3.27,3.27,0,0,0,1.36-.08c-1.36.25-1.44,1.12-.07.87s2.28-1,1.48-1.4a7.08,7.08,0,0,0-2-.34l-3.21-.3c-1.17-.11-2.31.79-1.14.91Z"/><path class="cls-8" d="M229.48,279.07q3.59,1,7,2.12l1.1-.87-1.07,0c-1.32,0-1.94,1-.62.92l1.08,0c1,0,1.76-.65,1.09-.87-2.26-.73-4.58-1.44-7-2.11-.94-.26-2.51.56-1.58.82Z"/><path class="cls-8" d="M268.07,284.1c-2.54,1-3.52,2.5-2,3.31.7.37,2.59-.32,1.89-.69-.91-.48-.49-1.39,1.09-2,1.19-.47.2-1.08-1-.61Z"/><path class="cls-8" d="M187.42,347.92c-.21,0-.06,0,0,0a1.18,1.18,0,0,1,.18-.11,8.5,8.5,0,0,1,1.32-.31c.57-.11.92-.45.8-.64s-.7-.24-1.28-.12a6.89,6.89,0,0,0-2.85,1c-.55.47-.36,1,.7,1.08a2.39,2.39,0,0,0,1.47-.37c.28-.22.18-.52-.34-.54Z"/><path class="cls-2" d="M208.84,441.36C180.36,464,120.57,478.76,75.3,474.27s-58.88-26.5-30.4-49.16,88.27-37.39,133.54-32.9S237.32,418.7,208.84,441.36ZM142,421.17c-15.65-1.55-36.31,3.54-46.15,11.37s-5.15,15.44,10.5,17,36.31-3.54,46.15-11.37S157.68,422.72,142,421.17Z"/><path class="cls-2" d="M208,426.5c-28.48,22.66-88.27,37.39-133.54,32.91S15.53,432.91,44,410.25s88.27-37.39,133.54-32.91S236.43,403.84,208,426.5Zm-66.8-20.19c-15.65-1.55-36.31,3.54-46.15,11.37s-5.15,15.44,10.5,17,36.31-3.54,46.15-11.37S156.79,407.86,141.15,406.31Z"/><path class="cls-3" d="M137.51,406.34c-.74.43.06.86,1.1.81a20,20,0,0,0,3.18-.61,5.06,5.06,0,0,1,2.86-.06.83.83,0,0,1,.31.43c.59,1.24,3.86,1.78,7.21,1.18,2.16-.38,4.65-1.19,6.3-.87,1.31.25,1.19,1.11.71,1.86-.77,1.2-2.15,2.42-2.69,3.61s0,2.41,2.33,2.68c1.7.2,4.14-.13,5.35.35,1.47.58.14,1.93-1.43,2.95a46,46,0,0,1-8.55,4.25c-2.91,1.13-6.48,2.36-7.05,3.78-.4,1,.93,1.77.3,2.79-1,1.5-5.37,2.5-8.86,2.93s-7.57.87-10,2.27c-1.56.92-1.87,2-3.38,2.92-2.45,1.51-7.21,2-10.14,1.56a14.59,14.59,0,0,1-6.2-2.75,13,13,0,0,0-7-2.32c-4.49-.21-10.44,1.3-14.37.64-.36-.06-.7-.14-.78-.31s.15-.42.41-.64c1.21-1.06,2.55-2.14,3-3.19s-.26-2.09-2.36-2.3c-1.58-.15-3.87.14-4.71-.4-.55-.37-.2-.95.22-1.49a27.84,27.84,0,0,1,8.33-6.55c3.13-1.73,7.17-3.64,7-5.4-.06-.87-1.16-1.66,0-2.59,1.41-1.13,4.76-1.45,7.41-1.69a73.35,73.35,0,0,0,14.54-2.84c1.33-.4,2.81-1,2.87-1.56,0-.24-.2-.45,0-.7a4.27,4.27,0,0,1,2.06-.72c5.87-1,11.41.18,11.89,2.47m-86,6.45c1-.16,1.35.37,1.22.81-.53,1.8-2.85,3.78-6.26,5.35-3.14,1.45-7,2.52-10.26,3.94s-5.74,3.49-4.19,4.71c.87.68,2.85,1,3.35,1.74.94,1.47-3.76,3.5-4.25,5.23-.27,1,.88,1.72,2.6,2.09a25.71,25.71,0,0,0,6.16.27c1.2-.05,2.7-.05,2.72.45,0,.16-.16.34-.34.51-1.56,1.46-4.38,2.79-6.22,4.23s-2.37,3.28.34,3.69c2.25.34,5.64-.46,7.94-.16,2.7.36,2.56,2,2.91,3.24.52,1.9,2.82,3.45,6.36,4.29l-.19.15a29.65,29.65,0,0,0,9-.48c3.24-.65,7.24-1.79,9.24-1.06a2.11,2.11,0,0,1,1.17,1.12,10.5,10.5,0,0,0,5,3.84,17.49,17.49,0,0,0,10.48.84c4.4-1,8.18-3.56,12.35-3.56a13.21,13.21,0,0,1,2.93.4,61.17,61.17,0,0,0,13,1.09c4.4-.06,9.51-.57,13.58-2.13,1.12-.43,2.12-.92,3.3-1.31,3.54-1.15,7.57-1.05,11.41-1.73,1.94-.35,3.82-.9,5.76-1.27a12.44,12.44,0,0,1,5.36-.14l-.31-.14c3.07-.12,6.64-1.21,8.37-2.56s2.11-3.14,5.24-4c2.34-.65,4.8-.34,7.25-.82a11,11,0,0,0,4.31-1.82,16.9,16.9,0,0,0,2.38-2.29,22.12,22.12,0,0,1,8-5.22l-.18.26c5-1.14,8.19-3.7,9.12-5.86s.22-4.12.71-6.23a2.05,2.05,0,0,1,1.33-1.51,15.28,15.28,0,0,1,3.62-.82c3.64-.63,7.08-2.16,8.34-3.74a3.27,3.27,0,0,0,.38-3.38,26.27,26.27,0,0,0-2.61-5.67.77.77,0,0,1-.15-.83c.48-.83,2.89-1.37,4.61-2,3.43-1.27,4.44-3.3,3.45-4.66s-3.52-2.22-5.76-3.16a2.76,2.76,0,0,1-1.4-.92c-.34-.64.49-1.45,1-2.21,1.31-2.05-.08-3.95-3.5-4.76-2.31-.55-5.48-.66-7-1.58s-1-2.29-2.54-3.13c-1.84-1-6.57-.74-9.67.56l.4-.44a40.13,40.13,0,0,1-8,2.21,8.85,8.85,0,0,1-2.5.18,2.48,2.48,0,0,1-1.2-.53l-5.22-3.79a6.24,6.24,0,0,0-2.94-1.31,8.8,8.8,0,0,0-4.87.74c-.88.51-1,1.1-1.83,1.62a10,10,0,0,1-4.71,1.14,21.91,21.91,0,0,1-4.27-.46,105.78,105.78,0,0,0-14-1.39,9.42,9.42,0,0,0-3,.25c-2.08.64-1.69,1.93-3.46,2.74L125.5,383l-.58-.18a49.07,49.07,0,0,0-12.56-.47c-4.64.45-9.77,1.81-12.71,3.73-2.16,1.42-2.94,3-2.77,4.36.11.79.49,1.58-.33,2.44-1.11,1.16-4.09,2.06-6.77,2.42a68.59,68.59,0,0,1-7.76.37,29.34,29.34,0,0,0-7.89,1.09c-1.56.49-2.93,1.24-3.11,1.94-.09.35.12.66-.08,1-.43.78-2.55,1.41-4.38,1.74a27.89,27.89,0,0,0-5.36,1.16A7.74,7.74,0,0,0,58,405.2a20.83,20.83,0,0,1-7.47,4.58A13,13,0,0,0,47.9,411c-.92.71-.57,1.44.4,1.84a14.9,14.9,0,0,0,3.87.67"/><path d="M136.74,406.36c-1,1.05,1,1.21,3,1,1.35-.18,3.54-.68,4.38-.34.29.12.32.48.53.64a5.78,5.78,0,0,0,2.82.95,15.91,15.91,0,0,0,3.77,0c.69-.08,1.36-.22,2-.36s1.25-.32,1.81-.38c1.63-.19,3.42.29,3.46,1,.05,1-1.95,2.41-2.56,3.43a2,2,0,0,0,1.23,3.26c1.22.38,2.8.15,4.22.32,4.23.52,1.7,2.24-.91,3.75a51,51,0,0,1-7.21,3.36c-2.84,1.1-6.43,2.38-7,3.92-.32.89,1.16,1.82.33,2.71-1.65,1.75-6.18,2.33-9.53,2.76-3.11.39-6.72.92-9.06,2.26-1.43.82-1.71,1.69-2.86,2.53-2.34,1.73-6.72,2.2-9.65,1.75-4.28-.65-5.5-2.81-8.55-4-2.28-.92-5.15-1.2-9-.87-2.25.19-4.61.55-6.82.63-1.34,0-3.54.07-3.43-.67,0-.39,1.42-1.23,1.83-1.65,1.38-1.4,2.21-3,.15-3.87a11.07,11.07,0,0,0-2.81-.43c-1.68-.2-3.17-.63-2.94-1.53.18-.7,1.53-1.7,2.36-2.42,2.78-2.42,7.06-4.36,10.5-6.64a6.07,6.07,0,0,0,2.48-2.44,1.58,1.58,0,0,0,0-.94c0-.14-.12-.27-.16-.41-.24-.87-.71-1.08,1.47-2,2.65-1.06,5.2-1,8.17-1.39,2.34-.31,4.69-.74,7-1.26a40.78,40.78,0,0,0,6.58-1.89c1.52-.66,1.1-.9,1.81-1.55,1.6-1.47,6.35-1.22,8.39-.85,2.3.42,3.64,1.24,4,2.37.13.4,1.69,0,1.56-.38-.49-1.45-2.55-2.47-5.75-2.83-2-.22-6.83-.32-9,.81a3,3,0,0,0-.74.58c-1,.95-.89,1.47-3.32,2.18a70,70,0,0,1-9.87,2.09c-3.27.45-8.16.45-10.9,1.95-1,.58-1.27,1.19-1.2,1.75s.49.91.5,1.41c0,.95-1.26,2-2.77,2.9-3.81,2.36-7.94,4.36-10.67,6.91-1.37,1.28-4,3.52-1.13,4.09a27.73,27.73,0,0,0,3.1.14c2.14.13,3.18.71,3,1.71-.13.84-1.12,1.75-2.06,2.6-.42.38-1.23.88-1.36,1.27-.42,1.39,4.26,1.1,6.72.89s4.78-.58,7-.64a13.5,13.5,0,0,1,8.43,2.23c2,1.28,4,2.82,8.18,3,3,.12,7-.49,9.42-1.91,1.94-1.14,2-2.49,4.66-3.52s5.91-1.19,8.63-1.57c3.4-.48,8-1.51,9.12-3.21.62-1-.46-1.6-.34-2.47.27-1.8,5.19-3.18,8.3-4.49,3.43-1.45,7.69-3.46,9.06-5.32,1.93-2.63-4-1.55-6.72-2.39-4.81-1.51,3.43-5.25,1.61-7.34-1.47-1.7-7.16.53-10.39.53-2.14,0-3.36-.52-4-1.27-.26-.3-.23-.47-.86-.64A4.74,4.74,0,0,0,143,406c-.65.06-5.55,1.18-4.74.29.4-.44-1.14-.39-1.54.05Z"/><path d="M51.2,413.63c1.13,0,.18,1.59-.14,2a9.67,9.67,0,0,1-2.1,1.91,34.72,34.72,0,0,1-8.05,3.67c-3.44,1.23-6.9,2.46-8.91,4.16-1.48,1.24-1.8,2.44-.34,3.26s3.61,1.14,2.41,2.7a37.81,37.81,0,0,1-2.91,2.54c-1.39,1.4-1.16,2.58.88,3.31a15.06,15.06,0,0,0,4.26.64c.82,0,2.65-.17,3.27,0,.8.17,1.23,1,.93,1.35a12.11,12.11,0,0,1-2.29,1.48c-2.27,1.42-4.54,2.86-4.59,4.35,0,1.18,1.56,1.83,4.32,1.76,3.43-.07,6.86-.7,7.85.89.55.87.42,1.88.91,2.76a6.27,6.27,0,0,0,2.54,2.26c.44.24,3.11,1.35,3.4,1.13-.23.18-.11.37.25.4a30.85,30.85,0,0,0,6.43,0c2.75-.3,5.32-1.13,8-1.49,4.57-.61,4.67,1.42,5.87,2.53a12.43,12.43,0,0,0,3.12,2.06,17.51,17.51,0,0,0,8.75,1.61c3.91-.23,6.8-1.63,10.09-2.8a14.14,14.14,0,0,1,8.8-.58,57.19,57.19,0,0,0,7.36.83,60.81,60.81,0,0,0,13-.58c4.76-.8,8-2.91,12.64-3.6,2.27-.33,4.49-.42,6.77-.76,3.76-.57,8.21-2.3,11.52-1.59.61.13,1.84-.33,1.3-.57l-.3-.14-.95.61a20,20,0,0,0,8.57-2.36,9.32,9.32,0,0,0,2.12-1.89,6.64,6.64,0,0,1,2.11-1.9c1.94-1,3.78-.82,5.76-1a14.65,14.65,0,0,0,7.52-2.37,34.75,34.75,0,0,0,3.41-3.3,23.38,23.38,0,0,1,6.61-4l-1.14-.2-.17.25c-.18.26.36.41.94.26,4.4-1.11,7.32-2.92,8.88-4.84,2.11-2.59.65-4.71,1.49-7.16.71-2.08,4.25-2.16,7.4-3.14a16.26,16.26,0,0,0,5-2.38c2.84-2.2,1.5-4.36.76-6.18-.46-1.16-1.55-2.31-1.73-3.52a1.73,1.73,0,0,1,1-1.95,17.81,17.81,0,0,1,1.87-.62,15.21,15.21,0,0,0,2.89-1.26c2.6-1.58,2.71-3.35,1.45-4.58a14.13,14.13,0,0,0-4.16-2.26c-1.6-.67-3-1.21-2.26-2.48a15.81,15.81,0,0,0,.92-1.45c.85-2-.65-3.71-4-4.52-2.69-.67-6.34-.71-7.52-2.11-.78-.93-.66-2.11-2.35-2.76-2.4-.92-6.89-.49-10.27.8l1.13.21c.13-.15.26-.3.4-.44.28-.31-.57-.42-1.14-.21A40.31,40.31,0,0,1,185.1,384c-3.93.89-5.26-.17-6.64-1.17-1.57-1.14-2.85-2.6-5.11-3.48a9.38,9.38,0,0,0-5.37-.24c-3.88.88-4,3.42-8.86,3.23-3.91-.15-7.23-1.08-11-1.4-2.34-.21-5.81-.76-8.68-.28s-2.4,1.32-3.72,2.21-3.47.39-5,.26c-1.88-.16-3.7-.33-5.41-.61a48.25,48.25,0,0,0-17.7.3c-6,1.29-10.45,3.68-11.38,6.27-.59,1.61,1.52,3.6-2.89,5.12s-8.92,1-13.1,1.25a27.9,27.9,0,0,0-6.53,1.11c-2.83.93-3,1.66-3.54,2.8-.87,2-7.12,2-10,3.37a7.42,7.42,0,0,0-2.47,2,16.28,16.28,0,0,1-4.52,3.46c-2.13,1.14-6.15,2.21-6.6,3.61s2.59,1.86,5.13,2.1c.88.08,1.73-.59.85-.68-2.4-.23-6.27-.69-3.41-2.46.65-.4,2.06-.83,2.88-1.19a25.8,25.8,0,0,0,5-2.79c1.85-1.38,2.46-3.37,6-4.32,1.92-.51,4-.58,5.89-1.18a5.43,5.43,0,0,0,2.77-1.52c.36-.55.14-.82.66-1.42,1-1.13,3.17-1.68,5.64-2,4.63-.59,8.71,0,13.47-.94,3.36-.7,6-2,6.34-3.4.32-1.2-.46-2.17.19-3.43s2.55-2.76,5.44-3.86a40.79,40.79,0,0,1,17.17-2c2,.17,3.67.58,5.66.77,2.8.26,5.63.49,8.45.74a1.9,1.9,0,0,0,1-.19,7.4,7.4,0,0,0,1.38-1c.77-.66.08-.41,1.88-1.17s2.23-.6,4.07-.51a101.69,101.69,0,0,1,10.54,1c2.93.45,8.24,1.59,11.73-.68.3-.2.43-.44.72-.64l2.77-1.44,2.71.13a6.47,6.47,0,0,1,2.91,1.72c1.54,1.12,2.76,2.57,4.85,3.47,2.6,1.12,9.22-1,12.26-2.2l-1.14-.21-.4.44c-.27.31.57.42,1.14.21,2.68-1,6.15-1.4,8.12-.7,1.63.58,1.52,1.71,2.2,2.58,1.29,1.63,5.28,1.61,8.25,2.44,1.88.52,3,1.37,3.32,2.42s-.82,2.21-1.28,3.38c-.71,1.81,3.08,2.5,5.06,3.53,1.49.78,2.63,1.72,2.34,3-.36,1.56-2.64,2.49-5.64,3.56-4,1.42-2.51,2.49-1.78,3.87,1.08,2,3.21,4.57,1.8,7-.77,1.32-3.1,2.71-6.14,3.51-1.82.47-4.13.58-5.77,1.3-3.33,1.46-1.89,4.28-2,5.66-.15,2.6-1.81,6-9,7.88l.95.26.17-.25c.2-.28-.54-.46-1.13-.21a25.69,25.69,0,0,0-7.24,4.37A32.65,32.65,0,0,1,180,440c-2.26,1.59-5,1.68-8.07,1.95a11.18,11.18,0,0,0-5.91,1.88c-1,.79-1.41,1.61-2.32,2.4-1.64,1.44-4.6,2.48-7.95,2.71-.59,0-1.37.41-1,.6l.31.14,1.3-.57c-4.05-.87-8.84,1.06-13.61,1.68-4.26.56-7.65.64-11.55,2.19a42.71,42.71,0,0,1-17,2.67,59.41,59.41,0,0,1-8.47-.73,22.26,22.26,0,0,0-5.94-.72c-3.61.28-6.59,1.92-9.65,2.94-6.78,2.26-11.84.18-14.38-1.57-1.39-1-1.7-2.2-3-3.18a4.2,4.2,0,0,0-2.53-.7,24.39,24.39,0,0,0-5.19.7c-4.24.87-7.61,1.44-11.41,1.08l.25.41.19-.15c.19-.15.16-.32-.09-.38-3.84-1-5.77-2.58-6.29-4.68-.31-1.24-.54-2.66-3.6-2.91-1.65-.14-3.53.19-5.3.23-3.89.09-4.44-1.34-2.71-3,1.49-1.4,7.36-3.89,7.11-5.32-.22-1.25-6.42-.49-8.35-.76-6.65-.93-.53-3.72,1-6.06,1.1-1.72-1.87-2-3.17-3-2.42-2,4.62-4.67,8.9-6.2,4.49-1.6,8.36-3.3,10.46-5.53,1-1,2.75-3.2-.45-3.18-.93,0-1.39.69-.43.69Z"/><path class="cls-4" d="M159,400.15a20.13,20.13,0,0,1,2.6-1,8.62,8.62,0,0,1,1.32-.37c.47,0,.29-.06.44.14.39.52,1.43.75,2.79.74s1.91-.93.62-.92c-2,0-1-1.34-3.61-.89a23.3,23.3,0,0,0-5.6,1.9c-1.09.51.36.92,1.44.41Z"/><path class="cls-5" d="M196.38,402.26a35.94,35.94,0,0,0-5.07,2c-1.05.52.4.93,1.44.41a31.63,31.63,0,0,1,4.61-1.82c1.29-.41.28-1-1-.62Z"/><path class="cls-4" d="M165.74,430.76a6.29,6.29,0,0,1,3.37-.71,5.18,5.18,0,0,0,2.94-.68c.81-.57-1-.75-1.81-.18.2-.14-.07-.06-.4-.06h-.62a10.52,10.52,0,0,0-2,.19,9.27,9.27,0,0,0-3.31,1.26c-.86.56.95.73,1.81.18Z"/><path class="cls-4" d="M127.63,442.93c1,1-1.34,2.43-.53,3.46.38.47,2.46,0,2.08-.52-.79-1,1.52-2.44.53-3.45-.45-.45-2.53.06-2.08.51Z"/><path class="cls-4" d="M89.5,452.25a7,7,0,0,1,3.93-1.4c1.33-.09,2-1,.61-.92-2.5.17-5.13,1-6.34,2.14-.64.58,1.17.77,1.8.18Z"/><path class="cls-4" d="M79.17,438.89a24.26,24.26,0,0,0-5,3.85c-.65.74-.72,1.36.67,1.6,1.07.18,2.19-.72,1.14-.91-1.4-.24,3.9-3.68,4.59-4.12.87-.56-.56-1-1.44-.42Z"/><path class="cls-4" d="M46.33,434.32c.67-.74,3.59-.07,4.36,0a9.74,9.74,0,0,0,3.07-.29c1.33-.34.86-1.1-.48-.76-2,.5-3.54-.32-5.44-.17a5.65,5.65,0,0,0-3.55,1.31c-.54.59,1.5.51,2-.07Z"/><path class="cls-4" d="M76.87,419.12a28.2,28.2,0,0,0-5.42.82c-1.46.38-3.22,1-3.1,1.71.09.53,2.23.24,2.14-.3-.06-.36,1.81-.74,2.47-.88a20,20,0,0,1,3.3-.42c1.32-.08,1.95-1,.61-.93Z"/><path class="cls-4" d="M65,406.08c1.36-.7,3-1.41,4.37-.89a4.26,4.26,0,0,0,2.76.07c1.32-.35.85-1.12-.47-.76-.36.09-1.32-.36-1.63-.4a7.26,7.26,0,0,0-2.07,0,13.33,13.33,0,0,0-4.4,1.53c-1,.53.42.94,1.44.41Z"/><path class="cls-4" d="M113.92,400c-.31-1.12-4.36.5-5.42,1-1.9.83-4.21,2.23-1.67,2.64,1.08.17,2.21-.73,1.13-.91-.78-.12,1.47-1.1,1.87-1.27s.79-.33,1.2-.49l.46-.17c.55-.1.66-.18.34-.25.15.53,2.23,0,2.09-.52Z"/><path class="cls-4" d="M103.71,394.75l4.42-1.16c1.33-.35.85-1.11-.48-.76L103.24,394c-1.33.35-.86,1.11.47.76Z"/><path class="cls-4" d="M154.94,387c-2.73,1.22-4.54,2.65-5.14,4.08-.24.58,1.8.52,2-.06.55-1.3,2.07-2.51,4.53-3.61,1.12-.5-.33-.9-1.44-.41Z"/><path class="cls-4" d="M190.61,392.23a74.13,74.13,0,0,0,7.68-1.43c1.35-.32.87-1.09-.48-.77a68.34,68.34,0,0,1-7.13,1.33c-1.37.19-1.45,1.06-.07.87Z"/><path class="cls-5" d="M173.46,419.06a4.8,4.8,0,0,1,3,.85c.44.45,2.53-.06,2.08-.51a6,6,0,0,0-4-1.24c-1.23-.06-2.38.85-1.14.9Z"/><path class="cls-5" d="M143.6,442.61a34.84,34.84,0,0,0,8.81-.84c1.36-.3.88-1.06-.47-.77a29.39,29.39,0,0,1-7.2.71c-1.23,0-2.38.86-1.14.9Z"/><path class="cls-5" d="M100,440.93q-4.59.69-9.15,1.18c-1.37.14-1.43,1-.08.87q4.56-.5,9.16-1.17c1.37-.21,1.45-1.08.07-.88Z"/><path class="cls-5" d="M48.07,442.08a17.47,17.47,0,0,0,6.19-.83c1.28-.4.28-1-1-.61a11.93,11.93,0,0,1-4.08.54c-1.2-.07-2.35.83-1.13.9Z"/><path class="cls-5" d="M48.07,423.14c-.12.28-.61.49-1,.74a2,2,0,0,0-.85.78c-.2.47.23.89,1.41.82s2-1,.62-.92c0,0,.07.07.05,0s0-.1,0-.15A2.22,2.22,0,0,1,49,424a2.92,2.92,0,0,0,1.16-.95c.27-.59-1.77-.53-2,.06Z"/><path class="cls-5" d="M84.38,408.54a9.72,9.72,0,0,1-4.43,1.9c-1.37.28-.88,1,.47.76a13.08,13.08,0,0,0,5.77-2.48c.65-.59-1.15-.77-1.81-.18Z"/><path class="cls-5" d="M128.24,389.37c.19-1.26-1.12-2.17-3.45-2.58-1.06-.18-2.19.73-1.14.91,1.75.3,2.59,1.05,2.45,2-.08.57,2.06.27,2.14-.3Z"/><path class="cls-5" d="M143.75,400c-1,.83-1.15,1.64-.38,2.25.55.42,2.44-.27,1.9-.69s-.34-.89.29-1.38-1.08-.77-1.81-.18Z"/><path class="cls-5" d="M183.39,391.05a21.43,21.43,0,0,1,3.8-1.26c1.35-.32.87-1.09-.48-.76a26.3,26.3,0,0,0-4.76,1.61c-1.1.5.35.91,1.44.41Z"/><path class="cls-6" d="M194.42,415.7a1.79,1.79,0,0,0,.57,1.61,1.46,1.46,0,0,0,1.28.13c.51-.12,1-.45.8-.64a1.57,1.57,0,0,1-.52-1.4c.09-.57-2-.27-2.13.3Z"/><path class="cls-6" d="M176.13,438.43a11.64,11.64,0,0,0-5.21-1.62c-1.14-.13-2.27.77-1.13.91a9.8,9.8,0,0,1,4.45,1.4c.59.41,2.49-.28,1.89-.69Z"/><path class="cls-6" d="M140,433.46c-1.61.71-2.53,1.57-2.66,2.38-.09.57,2,.27,2.14-.3s.81-1.16,2-1.66-.33-.91-1.44-.42Z"/><path class="cls-6" d="M57.45,450.35a17.53,17.53,0,0,0,6,0c1.37-.22,1.45-1.09.07-.87a13.69,13.69,0,0,1-4.49.09c-1-.2-2.62.63-1.58.82Z"/><path class="cls-6" d="M74.35,428.07c-2.06.48-3.41,1.54-2.95,2.29.3.5,2.39,0,2.08-.51-.21-.34.41-.8,1.34-1,1.36-.32.88-1.09-.47-.77Z"/><path class="cls-6" d="M61.64,413.65c-.83,1-.2,2,1.58,2.35,1,.2,2.61-.62,1.58-.83-1.27-.25-1.71-.85-1.11-1.59.49-.59-1.56-.52-2,.07Z"/><path class="cls-6" d="M87.48,400.28l2.1-1.93c.64-.58-1.17-.77-1.81-.18l-2.1,1.93c-.64.59,1.16.77,1.81.18Z"/><path class="cls-6" d="M126.12,395.12c.19.67,1.18,1.12,2.62,1.28,1.15.13,2.28-.78,1.14-.91s-1.54-.43-1.68-.88c-.06-.22-.76-.25-1.28-.13s-.87.42-.8.64Z"/><path class="cls-6" d="M169.63,390.77a19.36,19.36,0,0,1,4.19-1.67c1.31-.36.84-1.13-.48-.76a23.33,23.33,0,0,0-5.15,2c-1,.54.46.95,1.44.41Z"/><path class="cls-6" d="M176.25,408.29c-2.39.73-3.41,2.13-2.16,2.81.69.38,2.58-.31,1.89-.69s-.08-1.1,1.25-1.5.29-1-1-.62Z"/><path class="cls-6" d="M206.92,399.67l7.21,1.49c1,.21,2.61-.61,1.58-.82l-7.21-1.5c-1-.21-2.61.62-1.58.83Z"/><path class="cls-7" d="M183.17,427.69a14.81,14.81,0,0,0,6.75-1.73c.93-.55-.5-1-1.43-.41a10.11,10.11,0,0,1-4.71,1.22c-1.3,0-1.92.94-.61.92Z"/><path class="cls-7" d="M58.29,426.05c-.37,1.23.66,2.26,2.74,2.77,1,.24,2.55-.58,1.58-.82-1.73-.43-2.49-1.23-2.18-2.25.17-.57-2-.27-2.14.3Z"/><path class="cls-7" d="M58.53,445.57a33.43,33.43,0,0,1,6.69-1.89c1.36-.24,1.45-1.12.07-.87A38.6,38.6,0,0,0,57.54,445c-1.17.47-.19,1.09,1,.61Z"/><path class="cls-7" d="M109.11,448.15h0l.16,0,.07,0s0,0,0,0,.16.09.22.2.73.27,1.28.13.91-.43.8-.64-.71-.57-1.46-.69a2.44,2.44,0,0,0-1.48.37c-.3.27-.14.47.34.54Z"/><path class="cls-7" d="M114.92,403.4c-1.43.72-2.25,1.55-2.24,2.31,0,.56,2.14.26,2.13-.3s.52-1.08,1.55-1.6-.4-.93-1.44-.41Z"/><path class="cls-7" d="M106.75,388.9a40.59,40.59,0,0,0,12.46-4.33c.94-.54-.49-1-1.44-.41a35.62,35.62,0,0,1-11,3.86c-1.36.26-1.45,1.14-.07.88Z"/><path class="cls-7" d="M151.23,394.29a12.26,12.26,0,0,0,5.51.7c1.33-.08,2-1,.61-.92a9.66,9.66,0,0,1-4.23-.47c-.76-.34-2.67.35-1.89.69Z"/><path class="cls-7" d="M182.08,400.57a9.08,9.08,0,0,0-2.38,2.31c-.4.59,1.65.53,2-.07a8.31,8.31,0,0,1,2.14-2.06c.81-.58-1-.76-1.8-.18Z"/><path class="cls-7" d="M195.45,385.19a2.34,2.34,0,0,0,0,2.47c.3.49,2.39,0,2.08-.52a2,2,0,0,1,0-2c.31-.58-1.73-.52-2,.07Z"/><path class="cls-7" d="M152.3,446.56a36.25,36.25,0,0,1,3.89-2.26c1-.53-.41-.94-1.44-.42a39.26,39.26,0,0,0-4.26,2.5c-.83.57,1,.75,1.81.18Z"/><path class="cls-7" d="M82.58,414.23l1,1.47c.33.49,2.42,0,2.08-.51l-1-1.48c-.33-.48-2.42,0-2.08.52Z"/><path class="cls-8" d="M193.38,411.53a13.62,13.62,0,0,1,5.63.21c.91.28,2.49-.55,1.58-.82a17.37,17.37,0,0,0-7.15-.26c-1.36.19-1.44,1.06-.06.87Z"/><path class="cls-8" d="M148.43,435.51c.3,1.05,1.93,1.77,4.32,1.94,1.19.08,2.34-.82,1.14-.91-2-.13-3.14-.69-3.38-1.55-.14-.52-2.22,0-2.08.52Z"/><path class="cls-8" d="M109.63,443.14a13.18,13.18,0,0,0,5.12-3c.56-.59-1.49-.52-2,.07a10.71,10.71,0,0,1-4,2.29c-1.24.43-.25,1,1,.61Z"/><path class="cls-8" d="M78.58,432.88c1.55-.14,3.06-.19,4.53-.19,1.28,0,1.89-.91.61-.92-1.64,0-3.32.08-5.07.24-1.35.12-1.41,1-.07.87Z"/><path class="cls-8" d="M60.08,436.11c-1.8.77-2.71,1.73-2.28,2.53.26.51,2.35,0,2.08-.51s.21-1,1.18-1.41c1.13-.49.15-1.1-1-.61Z"/><path class="cls-8" d="M73.77,408.25a22.3,22.3,0,0,0-6.35.08c-1.37.2-1.44,1.07-.07.87a17.68,17.68,0,0,1,5.28,0c1.08.17,2.21-.73,1.14-.91Z"/><path class="cls-8" d="M101.32,402.59c.56-1.53,1.21-3.06,1.93-4.6.27-.58-1.77-.52-2,.07q-1.12,2.43-2,4.83c-.22.58,1.92.27,2.13-.3Z"/><path class="cls-8" d="M145.54,387.48l-7.26.49a9.62,9.62,0,0,0-4.06.9c-.93.55.5,1,1.44.42s3.75-.52,4.77-.58l4.5-.31c1.33-.09,2-1,.61-.92Z"/><path class="cls-8" d="M129.29,401.27l2.57,1.82c.58.42,2.47-.28,1.89-.69l-2.57-1.82c-.58-.41-2.47.28-1.89.69Z"/><path class="cls-8" d="M174.09,395.22c-1.29.95-1.69,1.94-1.15,2.74.33.48,2.42,0,2.08-.52s-.11-1.31.88-2c.78-.57-1-.75-1.81-.18Z"/><path class="cls-8" d="M161.12,409.54a20.8,20.8,0,0,1,4.42,1.24c.77.33,2.68-.36,1.89-.69a22.27,22.27,0,0,0-4.74-1.38c-1-.19-2.62.63-1.57.83Z"/><path class="cls-8" d="M74.32,451.39l2.4.23,1.2.11a3.27,3.27,0,0,0,1.36-.08c-1.36.25-1.44,1.13-.07.87s2.28-1,1.48-1.4a7.48,7.48,0,0,0-2-.33c-1.07-.1-2.14-.21-3.21-.3s-2.31.79-1.13.9Z"/><path class="cls-8" d="M169.41,383.56q3.59,1,7,2.11l1.09-.87-1.07,0c-1.32.05-1.94,1-.62.92l1.08,0c1,0,1.76-.66,1.09-.87-2.26-.74-4.58-1.44-7-2.12-.94-.26-2.51.57-1.58.83Z"/><path class="cls-8" d="M208,388.58c-2.55,1-3.53,2.51-2,3.32.7.36,2.59-.33,1.89-.7-.91-.48-.49-1.38,1.09-2,1.19-.46.2-1.07-1-.61Z"/><path class="cls-8" d="M127.36,452.4c-.22,0-.07,0,0,0a1.3,1.3,0,0,1,.18-.1,7.5,7.5,0,0,1,1.32-.31c.57-.11.92-.45.8-.64s-.7-.24-1.28-.13a6.94,6.94,0,0,0-2.85,1c-.55.47-.36,1,.7,1.07a2.39,2.39,0,0,0,1.47-.36c.28-.23.18-.52-.33-.55Z"/><polyline class="cls-9" points="580.6 527.1 580.6 468.72 695.5 267.36 695.5 327.3 580.6 527.1"/><rect class="cls-9" x="2.58" y="468.72" width="578.02" height="58.38"/></g></g></svg>