<svg xmlns="http://www.w3.org/2000/svg" xmlns:xlink="http://www.w3.org/1999/xlink" viewBox="0 0 223.5 274"><defs><style>.cls-1,.cls-10,.cls-3,.cls-4,.cls-5{fill:none;}.cls-2{fill:#4d4d4d;}.cls-10,.cls-11,.cls-3,.cls-4,.cls-5{stroke:#4d4d4d;}.cls-10,.cls-11,.cls-3,.cls-4,.cls-5,.cls-7{stroke-miterlimit:10;}.cls-3{stroke-width:2.35px;}.cls-4{stroke-width:5px;}.cls-5{stroke-width:2px;}.cls-6{clip-path:url(#clip-path);}.cls-11,.cls-7{fill:#e6e6e6;}.cls-7{stroke:#666;}.cls-10,.cls-11,.cls-7{stroke-width:3px;}.cls-8{fill:#666;}.cls-9{fill:#ccc;}</style><clipPath id="clip-path"><path class="cls-1" d="M172,211.82l16-.75c17,0,15-12.52,15-12.52s2-114.48,0-125.21-15-9.84-15-9.84H172L173,44l.5-9.5,61,9-5,182L172,234Z"/></clipPath></defs><title>Asset 12</title><g id="Layer_2" data-name="Layer 2"><g id="Layer_4" data-name="Layer 4"><path class="cls-2" d="M39.09,186.88q3-47.17,3.56-94.47l-6,2.49c5.9,6.83,13.69,10.61,18.25,18.79,4.69,8.4,6.12,18.1,5.62,27.61-.94,17.84-8.45,38.63-27.28,44.1-4.35,1.27-2.5,8.07,1.87,6.8,20.87-6.06,30.17-27.32,32.18-47.34,1.07-10.59-.12-21.46-4.54-31.2a45.19,45.19,0,0,0-8.31-12.45c-4-4.16-9.05-6.94-12.81-11.29-2.06-2.39-6-.4-6,2.49q-.52,47.28-3.56,94.47c-.29,4.53,6.76,4.51,7.05,0Z"/><path class="cls-2" d="M94.27,180.66c0,6.62,4.67,13.54,12,9.38,7.63-4.35,5.83-17.49,6-24.76.28-11,.18-22,0-33-.11-5.5-.26-11-.4-16.49-.07-2.59-.16-5.18-.2-7.76a33.31,33.31,0,0,1,.09-4.24A6,6,0,0,1,112,102c.47-.86.11-1.24-1.1-1.13-1.1,4.4,5.7,6.28,6.8,1.87.82-3.27,1-7.08-2.14-9.21-2.72-1.84-6-.87-8,1.54-5.44,6.54-2.86,18.83-2.66,26.59.27,10.67.51,21.34.47,32,0,5.49-.12,11-.33,16.48-.1,2.83-.13,5.7-.41,8.52-.14,1.45-.14,3-1.18,4.1-.45,1.51-.93,1.6-1.45.26a2.08,2.08,0,0,1-.68-2.35c0-4.54-7-4.54-7,0Z"/><path class="cls-2" d="M113.27,174.66c0,6.62,4.67,13.54,12,9.38,7.63-4.35,5.83-17.49,6-24.76.28-11,.18-22-.05-33-.11-5.5-.26-11-.4-16.49-.07-2.59-.16-5.18-.2-7.76a33.31,33.31,0,0,1,.09-4.24A6,6,0,0,1,131,96c.47-.86.11-1.24-1.1-1.13-1.1,4.4,5.7,6.28,6.8,1.87.82-3.27,1-7.08-2.14-9.21-2.72-1.84-6-.87-8,1.54-5.44,6.54-2.86,18.83-2.66,26.59.27,10.67.51,21.34.47,32,0,5.49-.12,11-.33,16.48-.1,2.83-.13,5.7-.41,8.52-.14,1.45-.14,3-1.18,4.1-.45,1.51-.93,1.6-1.45.26a2.08,2.08,0,0,1-.68-2.35c0-4.54-7-4.54-7,0Z"/><path class="cls-2" d="M100.92,159.93q19.23-10.87,39.16-20.44c4.08-2,.51-8-3.56-6.09Q116.6,143,97.36,153.85c-4,2.23-.4,8.32,3.56,6.08Z"/><path class="cls-2" d="M72.73,146.19c-1.75,7-3.67,23.57,7.43,23.25s10-14.62,9.87-22.31c-.08-4.54-7.13-4.55-7,0,0,3.13,1.4,13.83-2.31,15.08-1.57.53-1.08,0-1.56-.89-.59-1.18-.49-3-.55-4.33a30.56,30.56,0,0,1,1-8.93c1.11-4.4-5.69-6.28-6.79-1.87Z"/><line class="cls-3" x1="18" y1="50" x2="18" y2="221"/><line class="cls-4" x1="18" y1="248" x2="154" y2="248"/><line class="cls-5" x1="151.5" y1="49.5" x2="151.5" y2="221.5"/><line class="cls-5" x1="64" y1="50" x2="64" y2="96"/><line class="cls-5" x1="106" y1="50" x2="106" y2="83"/><line class="cls-5" x1="64" y1="190" x2="64" y2="221"/><line class="cls-5" x1="106" y1="199" x2="106" y2="221"/><g class="cls-6"><path class="cls-7" d="M172,229l25.09-.94c26.65,0,23.52-15.66,23.52-15.66s3.13-143.17,0-156.6-23.52-12.3-23.52-12.3H172V229"/></g><path class="cls-8" d="M172.61,64.93l12.89-.3c4.26-.09,9.07-.42,12.33,2.9,5.34,5.44,3.91,15.51,4,22.48.22,16.51.23,33,.12,49.53s-.35,33-.6,49.53c-.06,3.8.18,7.75-.19,11.54-.46,4.66-3.34,7.27-7.7,8.49-6.92,2-14.34-.71-21.42.61-1.89.35-1.09,3.25.8,2.89,8-1.49,16.49,1.92,24.21-1.6,6.15-2.8,7.07-7.77,7.18-14q.54-29.7.73-59.43c.12-19.5.77-39.24-.35-58.71-.33-5.76-1.76-12.21-7.12-15.37-2.87-1.69-6.25-1.88-9.49-1.9-5.13,0-10.27.23-15.4.35-1.93,0-1.93,3,0,3Z"/><rect class="cls-9" x="2" y="248" width="170" height="12"/><path class="cls-9" d="M171.5,260.25c0,6.74-7.2,12.25-16,12.25H17.5c-8.8,0-16-5.51-16-12.25S8.7,248,17.5,248h138C164.3,248,171.5,253.51,171.5,260.25Z"/><rect class="cls-10" x="1.5" y="1.5" width="170" height="271" rx="16"/><line class="cls-11" x1="18" y1="22" x2="154" y2="22"/></g></g></svg>