<svg xmlns="http://www.w3.org/2000/svg" xmlns:xlink="http://www.w3.org/1999/xlink" viewBox="0 0 275.81 275"><defs><style>.cls-1{fill:none;}.cls-2{clip-path:url(#clip-path);}.cls-3{clip-path:url(#clip-path-2);}.cls-4{clip-path:url(#clip-path-3);}.cls-5{clip-path:url(#clip-path-4);}.cls-6{clip-path:url(#clip-path-5);}.cls-7{clip-path:url(#clip-path-6);}.cls-8{clip-path:url(#clip-path-7);}.cls-9{fill:#d19f59;stroke:#000;stroke-miterlimit:10;stroke-width:3px;}.cls-10{fill:#ff4fa2;}.cls-11{fill:#fdec06;}.cls-12{fill:#42b8ea;}.cls-13{fill:#2ba048;}.cls-14{fill:#e81e25;}.cls-15{fill:#fff;}.cls-16{fill:#231f20;}</style><clipPath id="clip-path" transform="translate(-25.22 -23.81)"><path class="cls-1" d="M59.77,257.45a28.45,28.45,0,0,0,18.28,1.17,10.58,10.58,0,0,0,4.09-1.93c3.23-2.76,2.93-7.75,2.35-11.95,5.23,5.28,14.93,4.18,19.85-1.38s5.32-14.23,2.17-21c2.44,3.33,7.17,3.86,11.3,3.7,4.76-.19,9.73-1,13.52-3.89s5.95-7.65,6.59-12.41-.08-9.61-1.06-14.31l-.52,2.55a95.22,95.22,0,0,1,69.34,6.41c5.22,2.66,10.28,5.88,14,10.41,4,4.86,6.19,10.91,8.2,16.87,2.7,8,5.23,16.3,4.63,24.72-.6,8.62-4.42,16.63-8.18,24.41l-13.74,28.46c-.83,1.71-1.73,3.51-3.33,4.52a10,10,0,0,1-5,1.14c-15.87.72-31.75-1.1-47.46-3.45q-26.36-4-52.35-9.93c-9-2.07-18-4.34-26.51-8-3.4-1.46-6.78-3.19-9.34-5.88-6.95-7.3-5.71-18.89-4-28.83"/></clipPath><clipPath id="clip-path-2" transform="translate(-25.22 -23.81)"><path class="cls-1" d="M189.66,203.88c-4.77,1.09-9.7,3.67-11.38,8.27s2.06,10.88,6.87,10c-6.8-.28-13.15,5.94-13,12.75s6.69,12.79,13.48,12.28c-3.11,1.94-6.27,3.94-8.58,6.79s-3.64,6.75-2.52,10.24,4.5,5.9,8.05,6.86,7.3.73,11,.48c-3.63,4.06-2.62,10.85,1,14.89s9.24,5.78,14.65,6.46A50,50,0,0,0,230,291.09c-1,7-8.89,10.61-15.81,12.19-21.51,4.93-44,2.78-65.87.21-18.55-2.17-37.1-4.63-55.33-8.67-12.09-2.67-24.31-6.17-34.36-13.41C43.4,270.43,35.13,252.4,28,235c-4.79-11.67-9.37-23.51-11.86-35.88-1.86-9.19-2.46-19.06,1.27-27.67,4.07-9.39,12.94-16.11,22.58-19.56s20.08-4,30.32-3.85c10.41.14,20.89,1,30.88,3.85C116,156.2,129.13,164.84,142,173.36l48.22,31.95"/></clipPath><clipPath id="clip-path-3" transform="translate(-25.22 -23.81)"><path class="cls-1" d="M208.9,170.85c-3.38,5.59,1.94,13.44,8.43,14.12s12.58-3.91,15.87-9.55a12.28,12.28,0,0,0,22,10.42c-2.71,5.74.32,13.46,6.22,15.82s13.42-1.14,15.41-7.17c-1.5,3.56-2.8,7.34-2.56,11.2s2.34,7.82,5.94,9.23c6.25,2.45,12.4-3.45,16.54-8.74a63.65,63.65,0,0,1-17.41,54.74c-5.93,5.94-13,10.62-20,15.21-11.17,7.29-22.49,14.51-34.78,19.71-22.6,9.56-47.6,11.89-72.14,12-28.77.11-58.23-2.87-84.22-15.2S20,257.33,14.54,229.09c-1.87-9.62-1.79-19.5-1.34-29.29s1.48-20.16,7.41-28C27.85,162.31,40.53,159,52.33,157A297.6,297.6,0,0,1,208.9,173"/></clipPath><clipPath id="clip-path-4" transform="translate(-25.22 -23.81)"><path class="cls-1" d="M23,170.7a19.24,19.24,0,0,0,17.83,9.68A19.25,19.25,0,0,0,57,168.23a18.66,18.66,0,0,0,19.81,9.46,18.66,18.66,0,0,0,14.41-16.57c.82,7.95,8.7,14.49,16.67,13.83s14.66-8.4,14.16-16.38c16-5.9,25.48-21.95,37.28-34.29,27.71-29,71.83-38.43,111.18-30.68,22.38,4.41,46,16.27,52.87,38,4.31,13.73,1,28.8-4.94,41.92s-14.24,25-20.6,37.92c-9.53,19.37-14.69,41.17-28,58.16-17.8,22.7-47.21,32.94-75.66,37.71-30.92,5.2-62.82,5.26-93.52-1.13C75.18,300.91,49.11,290,34.44,268.5,25.23,255,21.37,238.4,20.76,222.06s1.82-32.63,4.25-48.8"/></clipPath><clipPath id="clip-path-5" transform="translate(-25.22 -23.81)"><path class="cls-1" d="M115.62,86.57Q85.41,79,54.68,73.65c-10.34-1.78-21.45-3.27-30.92,1.25C12.86,80.11,6.87,92.06,3.65,103.71A93.71,93.71,0,0,0,.84,141.79c2.42,17,10.06,32.71,16.53,48.61C31.26,224.56,40.83,262,66.12,288.86a107.6,107.6,0,0,0,48.54,29.51c16.07,4.57,33,5.32,49.7,5.24,36-.17,73-4.3,105.17-20.52,7.5-3.78,14.74-8.23,20.83-14a80.67,80.67,0,0,0,14.23-18.78c19.63-34.33,21.63-76.62,12.92-115.2-4.29-19-12.33-39.08-29.37-48.6-9.4-5.25-20.4-6.6-30.93-8.86a171.14,171.14,0,0,1-34.59-11.38,39.61,39.61,0,0,1-10.49,13.53c8.17,7.95,6.18,23.62-3.72,29.28-5.09,2.91-11.21,3.24-17.07,3.41a643.37,643.37,0,0,1-66.6-1.47c-4.83-.36-10.64-1.48-12.3-6s2-9.06,5.32-12.49a43.63,43.63,0,0,1-20.84.87c-2.76-.56-5.75-1.61-7.08-4.09-1.06-2-.8-4.39-.51-6.62,1.12-8.48,3.25-18.4,11.08-21.83"/></clipPath><clipPath id="clip-path-6" transform="translate(-25.22 -23.81)"><path class="cls-1" d="M44.13,77c-3,8.16,3.18,17.85,11.59,20.09S73.35,95.2,79,88.54a18,18,0,0,0,35.15,4.32A23.78,23.78,0,0,0,158,83.8c16.91,4,36-5.26,43.33-21,10.61,8.74,25.63,8.69,39.06,11.62,17.54,3.82,33.29,13.17,48.69,22.38,6.17,3.69,12.52,7.54,16.64,13.43,5.89,8.41,6.19,19.41,5.92,29.68a433.12,433.12,0,0,1-10,81.49c-3,13.72-7,27.82-16.23,38.42-7.07,8.13-16.68,13.55-26.09,18.81-14.19,7.93-28.45,15.9-43.73,21.46C174.65,315,128.81,311.6,87.21,298.68c-7.77-2.41-15.56-5.21-22.17-9.95-5.15-3.7-9.42-8.47-13.37-13.42A166.13,166.13,0,0,1,43.94,78.9"/></clipPath><clipPath id="clip-path-7" transform="translate(-25.22 -23.81)"><path class="cls-1" d="M197.76,25.05c-8,1.21-16,3.77-22.06,9s-10,13.61-8.27,21.49,9.89,14.28,17.75,12.52c-12.11,5.53-14.06,24.23-4.79,33.78s25.7,9.58,36.69,2.06c-2,12.37,7.48,25.41,19.85,27.45s25.47-7.31,27.59-19.66c3.36,8.85,13.75,13.73,23.15,12.61s17.64-7.18,23.48-14.63C316,133.3,320.8,157,322,181.06c1,20.91-1,42.86-12.09,60.64-5.95,9.56-14.22,17.43-22.4,25.19l-29.29,27.77c-4.73,4.49-9.55,9-15.37,12-7.62,3.9-16.39,4.79-24.94,5.41a502.19,502.19,0,0,1-53.48,1c-25.46-.89-51.15-3.79-75-12.74s-45.86-24.43-59-46.24c-16.83-27.86-17.52-62.4-15-94.85,2.09-26.79,6.12-53.71,16-78.7s26-48.12,48.46-62.83C107.19-.19,142.47-4.22,174,4.25c5.16,1.38,10.44,3.21,14.13,7.07s5.19,10.28,2,14.59"/></clipPath></defs><title>Asset 8</title><g id="Layer_2" data-name="Layer 2"><g id="Layer_4" data-name="Layer 4"><g class="cls-2"><g class="cls-3"><g class="cls-4"><g class="cls-5"><g class="cls-6"><g class="cls-7"><g class="cls-8"><path class="cls-9" d="M299.53,161.31a136,136,0,1,1-136-136A136,136,0,0,1,299.53,161.31Zm-136-40a47,47,0,1,0,47,47A47,47,0,0,0,163.53,121.31Z" transform="translate(-25.22 -23.81)"/><path class="cls-10" d="M158.22,122.47c-.3,1.48,1.69,2.51,3.13,2.06s2.43-1.72,3.56-2.72,2.8-1.77,4.11-1a5.91,5.91,0,0,1,1.26,1.19,10.05,10.05,0,0,0,12.82,1.37c2.48-1.77,4.65-4.87,7.66-4.42,2.42.37,3.82,2.93,4.51,5.28,1.09,3.77,1.32,7.77,2.72,11.43s4.5,7.11,8.42,7.23c2.88.09,5.85-1.62,8.53-.55,3.25,1.3,3.78,5.65,3.36,9.12a42.74,42.74,0,0,1-4.71,15c-2.21,4.16-5.21,8.83-3.41,13.18,1.27,3.07,4.68,5,5.61,8.15,1.38,4.72-3.27,8.94-7.63,11.23s-9.56,4.77-10.47,9.6c-.6,3.16.93,6.42.43,9.59-.81,5.18-6.85,8.13-12.06,7.58s-9.78-3.59-14.26-6.31-9.48-5.29-14.69-4.77c-7,.7-13,6.87-20,6.09a2.7,2.7,0,0,1-1.72-.68,3,3,0,0,1-.59-2c-.17-3.48-.2-7-1.51-10.28s-4.25-6.08-7.73-6.08c-2.63,0-5.46,1.52-7.7.17-1.49-.9-2.07-2.74-2.44-4.44a49.64,49.64,0,0,1,.16-21.73c1.41-6,3.82-12.84.38-18-1.71-2.55-4.79-4.54-4.83-7.61,0-3.76,4.33-5.69,7.78-7.16a40.47,40.47,0,0,0,16.19-12.61c1.21-1.58,2.33-3.73,1.34-5.45-.4-.71-1.13-1.26-1.29-2.06-.22-1.11.75-2.09,1.7-2.72C143.7,115.6,154,117.36,159,124M44.11,168.08c1.24-.78,2.67.69,3.29,2a23,23,0,0,1,.67,17.62c-1.94,5.17-5.71,9.49-7.83,14.6s-2,12,2.56,15.1c2.53,1.74,6,2,8.17,4.15,4.12,4.08,1,11.43,3.44,16.67a10.41,10.41,0,0,0,7.69,5.38,20.86,20.86,0,0,0,9.61-1c1.68-.51,3.89-.95,4.84.52a3.55,3.55,0,0,1,.44,1.6c.42,4.78-1.3,9.49-1.34,14.28S78.24,269.4,83,269.81c3.94.34,7.47-3,11.42-2.78,4.64.27,7.41,5,10.29,8.69a30.33,30.33,0,0,0,17.35,10.79v.5A18.82,18.82,0,0,0,134.39,283c3.58-2.86,7.37-7.38,11.67-5.81a11,11,0,0,1,3.81,3A46,46,0,0,0,164.33,290c5.51,2.38,12.55,3.42,17-.58,4.67-4.18,5.46-12.89,11.61-14.1a14,14,0,0,1,5.07.32,54.32,54.32,0,0,0,21.14-.56c6.4-1.45,13-4.46,16.09-10.24a50.7,50.7,0,0,1,2.45-4.82c3.07-4.43,9.22-5.3,13.61-8.44,2.23-1.59,4-3.76,6.15-5.43s5-2.85,7.63-2l-.7-.31a10.81,10.81,0,0,0,7.6-10c.05-4.6-2.71-9.87.28-13.36,2.24-2.62,6.46-2.4,9.17-4.53a8.87,8.87,0,0,0,3-6.64,39.12,39.12,0,0,0-.74-7.45c-.84-6-.6-12.28,2.08-17.69l.21.8c5.24-4.82,5.22-13.29,2.59-19.92s-7.31-12.22-10.51-18.58c-.75-1.51-1.44-3.26-.84-4.84s2.39-2.47,3.83-3.47a13.35,13.35,0,0,0,5.37-13.44c-.8-3.82-3.25-7-5.71-10.08q-6.78-8.33-14.36-15.94a6.4,6.4,0,0,1-1.76-2.41c-.84-2.6,1.72-4.89,3.08-7.26,2.72-4.73.45-11-3.54-14.72s-9.32-5.53-14.35-7.64A10.72,10.72,0,0,1,246,64.35c-1.68-1.8-2-4.44-2.66-6.8a19,19,0,0,0-14-13c-4.42-1-9.31-.33-13.23-2.6-3.7-2.14-5.77-6.46-9.54-8.48a10,10,0,0,0-13.22,4.47l-.23-1.42a23.93,23.93,0,0,1-7.67,8.86,5.38,5.38,0,0,1-3.36,1.24,6,6,0,0,1-2.73-1.19l-14.74-9.64c-2.09-1.37-4.29-2.78-6.77-3s-5.31,1.15-5.81,3.6c-.36,1.75.51,3.54.3,5.32-.28,2.38-2.51,4.15-4.85,4.71s-4.78.19-7.16-.1a97,97,0,0,0-23.28,0c-1.45.17-3,.47-3.92,1.62-1.9,2.48,1.09,6.17,0,9.08l-15.83.32-1.19-.38c-6.56-.64-13.38-.38-19.39,2.3S65.63,67.4,64.85,73.94c-.57,4.81,1.2,9.68,4,13.65,1.62,2.29,3.65,4.51,4,7.29.52,3.74-2.2,7.28-5.5,9.12s-7.12,2.41-10.77,3.36-7.42,2.45-9.63,5.5c-1.38,1.91-2,4.53-1,6.64a26.84,26.84,0,0,1,1.76,3c.82,2.43-1.14,4.92-3.24,6.4s-4.61,2.7-5.74,5c-1.26,2.58-.39,5.62,0,8.45A26.09,26.09,0,0,1,36.32,158a10.61,10.61,0,0,0-1.64,4.43c0,2.35,1.83,4.4,4,5.29a17.36,17.36,0,0,0,7,.84" transform="translate(-25.22 -23.81)"/><path d="M157.13,122.77c.54,3.36,3.76,3.27,6.21,2,1.68-.9,4-3,5.85-2.27.62.26,1.33,1.31,2,1.74a11.22,11.22,0,0,0,5.92,2,11,11,0,0,0,5.5-1.18,15.52,15.52,0,0,0,2.37-1.66,13.26,13.26,0,0,1,2-1.66,6,6,0,0,1,6.87,1.82c1.87,2.83,1.61,7.68,2.6,10.87a16.38,16.38,0,0,0,3.2,6.06,10.2,10.2,0,0,0,4.66,3.2c2.5.76,4.41-.39,6.82-.3,7.18.27,6.65,6.08,5.61,11.31a44.69,44.69,0,0,1-4.42,12c-2.15,4.08-5.07,8.9-3,13.61,1.17,2.7,5.08,5,5.49,7.88.83,5.66-4.78,8.69-8.92,10.91-3.86,2.08-8.21,4.68-9.18,9.32-.59,2.83.62,5.49.49,8.3-.26,5.77-5.84,8.44-11,8-7.52-.68-13.33-6.69-20.11-9.43a18.66,18.66,0,0,0-14.87.06c-3,1.22-5.79,3-8.89,3.86-1.89.54-5.08,1.24-6.31-1-.64-1.15-.18-4-.35-5.38-.56-4.54-2.36-9.57-6.95-11.46-1.75-.72-3.13-.4-5-.46-2.86-.1-5.82-.91-7.15-3.63-1-2.13-.91-5.48-1-7.84-.38-7.92,2.32-14.91,3.18-22.62a15.25,15.25,0,0,0-.88-7.94A13.27,13.27,0,0,0,116,156c-.31-.4-.67-.75-1-1.14-2-2.51-3-3-1.46-6.17,2-3.9,5.8-4.49,9.46-6.51a41.39,41.39,0,0,0,8-5.74c2.27-2.08,5-4.6,6.2-7.49,1-2.38,0-3-.21-5.11-.36-4.79,7.1-5.44,10.79-4.95a15.89,15.89,0,0,1,10.35,5.83c.92,1.11,2.5-.49,1.59-1.59A18.13,18.13,0,0,0,146,116.51c-3.33-.06-10.69,1-11.85,5a4.83,4.83,0,0,0,0,1.93c.22,3.11,1.41,4.58-.87,7.4a38.81,38.81,0,0,1-10.68,9c-4,2.29-11.21,3.7-12.46,8.93a6.78,6.78,0,0,0,1.46,5.5c1,1.43,2.41,2.54,3.36,4,1.79,2.8,1.79,6.18,1.29,9.35-1.26,8.06-3.63,15.18-2.92,23.49.35,4.16.55,11.56,5.91,12.38,1.62.24,3.24-.36,4.84-.47a7.55,7.55,0,0,1,7.65,4.13c1.37,2.51,1.58,5.49,1.78,8.28.09,1.24-.19,3,.35,4.13,2,4.25,8.32,2,11.57.66,3.06-1.28,6-3.1,9.2-4,6-1.58,11.51,1.1,16.58,4.12,5.31,3.17,11.1,7.14,17.62,6.43,4.71-.51,9.41-3.47,10.35-8.37.76-3.92-1.63-7.94.35-11.74,1.89-3.61,6.52-5.22,9.84-7.15,4.12-2.4,9-6.77,7.48-12.13-.85-3-3.63-4.57-5.05-7.16-3-5.38,1.74-10.91,3.9-15.67,2.39-5.26,4.93-12.45,3.51-18.33-2-8.3-8.83-3.38-14.34-5.08-9.91-3-4.68-16.49-11.24-22.11-5.33-4.57-9.58,3.65-14.34,4.61-3.15.63-5.92-.56-8.24-2.58-1-.83-1.22-1.33-2.45-1.63a3.69,3.69,0,0,0-2.87.35c-.85.38-6,5.12-6.45,2.26-.23-1.43-2.39-.82-2.17.6Z" transform="translate(-25.22 -23.81)"/><path d="M44.41,169.17c1.65-.35,3.2,4.63,3.47,5.89a22.15,22.15,0,0,1,.45,6.24c-.34,4.9-2.6,9-5.08,13.17-2.79,4.61-5.61,9.27-5.44,14.85.12,4.09,1.89,7.74,5.56,9.73s7.42,2.28,8.55,7.23c.61,2.71.1,5.6.42,8.35a10.93,10.93,0,0,0,7.44,9.5,16.12,16.12,0,0,0,7.46.64c1.27-.15,3.59-1.27,4.77-1.05a6.57,6.57,0,0,1,3.87,3.71c.32,1.48-.4,3.56-.62,5-.71,4.84-1.4,9.75,1.29,14.15a8.39,8.39,0,0,0,9.65,3.94c4.92-1.23,8.81-4.09,13.24.34,2.39,2.39,4.09,5.4,6.44,7.85a31.19,31.19,0,0,0,8,5.93c1.11.58,7.1,3.07,7.11,2.32a1.13,1.13,0,0,0,1.12,1.12,21.29,21.29,0,0,0,9.39-2c3.49-1.71,5.75-4.89,9.07-6.75,5.61-3.13,9.53,2.82,13.37,5.75a47.08,47.08,0,0,0,8.41,5.16c4.81,2.27,10.65,4,15.9,2.19s7-6.78,9.68-11.21c3.07-5.09,6.29-5,11.91-4.26a55.2,55.2,0,0,0,12.39.27c6.22-.57,12.77-2,18-5.5,5.57-3.73,6.48-10.91,12-14.28,2.72-1.66,5.85-2.56,8.56-4.24,4.5-2.77,7.87-9.16,14.05-8,1.15.2,2.12-1.51.87-2.06l-.7-.31-.27,2.06a12.26,12.26,0,0,0,8.28-9.44,20.13,20.13,0,0,0-.38-6.19c-.28-1.93-1-4.27-.41-6.23,1.08-3.38,4.05-3.53,6.68-4.57a9.76,9.76,0,0,0,6.69-9.18c.22-3.59-.86-7.17-1.09-10.73a28.8,28.8,0,0,1,2.27-13.84l-2.06-.27.21.8a1.13,1.13,0,0,0,1.88.5c4.42-4.57,5.38-10.77,4.13-16.87-1.7-8.25-7.8-14.08-11.1-21.54-2.81-6.33,2.28-7.6,5.11-11.41a14.79,14.79,0,0,0,2.9-8.47c.1-7.32-5.87-13.27-10.33-18.43-2.84-3.29-6.57-6.35-9.08-9.87-1.08-1.52-2.62-3.9-2.12-6,.17-.73,1.19-1.69,1.6-2.36a12.12,12.12,0,0,0,1.93-4.58c.91-5.4-2.22-10.68-6.35-13.92-3.1-2.43-6.74-3.93-10.34-5.45s-6.69-2.67-7.94-6.66c-.48-1.5-.74-3-1.32-4.52a20.32,20.32,0,0,0-14.22-12.19c-5.21-1.16-10.67-.23-15-4-2.87-2.5-4.88-6-8.59-7.44a11.2,11.2,0,0,0-13.67,5.36l2.05.27-.23-1.41a1.14,1.14,0,0,0-2.06-.27A24.81,24.81,0,0,1,187,42.71c-4.16,3.76-8.08,1-12-1.5-4.43-2.9-9-6.83-14-8.78-2.75-1.08-6-1.23-8.35.88-4.11,3.7.5,11.23-7.09,12.1-6,.69-12.66-1.06-18.82-.93-3.84.08-10-.52-13.32,1.74s-1.11,4.57-1.41,7.57c-.32,3.3-4.38,2.18-6.82,2.24a70.8,70.8,0,0,1-9.11-.22c-8.81-1-18.61.07-25.57,6a18.36,18.36,0,0,0-5.16,21.8c2.12,4.91,8.91,10.18,5.24,15.94s-11.37,5.47-17,7.51c-2.88,1.05-5.79,2.6-7.57,5.2-2.45,3.57-1.41,5.76,0,9.25,2.37,6.1-6.88,7.88-8.53,12.86-.71,2.16-.31,4.34,0,6.53a27.79,27.79,0,0,1-.26,11.52c-1,4-5,8.32-3,12.57,2,4.42,7.26,4.73,11.46,4.7a1.13,1.13,0,0,0,0-2.25c-4,0-10.54-.22-9.59-6.26.21-1.38,1.5-3.05,2-4.35a27.79,27.79,0,0,0,2.15-9.68c.16-4.61-2.62-10.66.88-14.47,1.89-2.07,4.77-2.89,6.5-5.21a6,6,0,0,0,1.25-5.3c-.49-1.73-1.31-2.46-1.65-4.39-.65-3.62,1.54-5.88,4.61-7.53,5.74-3.09,12.93-2.42,18.12-6.71,3.67-3,5.16-7.5,3-11.88-1.74-3.62-4.7-6.26-6.07-10.15a15.51,15.51,0,0,1,.87-13C72.1,60.82,81.11,58,89.48,57.77c3.33-.07,6.5.66,9.78.63,4.62,0,9.23-.19,13.85-.29a1.14,1.14,0,0,0,1.08-.82,12.84,12.84,0,0,0,.11-3.5c-.09-2.17-.64-1.22.6-4s2.19-2.4,5.06-2.69a93.64,93.64,0,0,1,17.48,0c5.16.47,15.09,2.27,16-5.43.08-.68-.17-1.41-.11-2.08l1.41-5.07,4.24-.41c2.56.33,5.37,2.83,7.5,4.22,4.34,2.85,8.82,6.77,13.59,8.81,5.9,2.54,11.65-5.77,14-10.08L192,36.79l.23,1.42a1.14,1.14,0,0,0,2.06.27A8.89,8.89,0,0,1,205,34.06c3.47,1.23,5.4,4.59,8,6.95,4.91,4.42,10.76,3.19,16.69,4.77A17.9,17.9,0,0,1,239.13,52c2.51,3.15,2.9,6.75,4.39,10.33,2.3,5.53,9.16,6.45,14,8.91,3.65,1.86,7.08,4.32,8.95,8.06,2.36,4.7.73,8.1-1.73,12.12-3.29,5.38.92,8.08,4.57,11.94,5.35,5.64,13.2,12.53,15.61,20.06a12.45,12.45,0,0,1-2.55,12.13c-1.8,1.93-5,2.93-6.1,5.52-2.21,5.27,5.16,13.19,7.61,17.27,4.6,7.7,8.55,18.38,1.32,25.85l1.88.49-.21-.8a1.13,1.13,0,0,0-2.05-.26,31,31,0,0,0-2.58,15c.23,3.55,1.36,7.18,1.09,10.73-.41,5.34-4.25,6.42-8.29,8.12-3.27,1.36-5.18,3.61-5.24,7.27-.05,2.63.9,5.14,1,7.74a10,10,0,0,1-6.71,10.31c-.8.29-1.24,1.63-.27,2.06l.7.3.87-2.05c-7.59-1.37-11.09,5.7-17,8.94-5.25,2.88-10.09,4.11-13,9.81-4.15,8.17-11.28,11.46-20.06,12.83a53.52,53.52,0,0,1-13.85.34c-3.22-.34-6.92-1.64-10.1-.4-4.81,1.88-6.17,7.61-8.78,11.5-5.81,8.64-17.15,4-24.13-.43-3.84-2.43-6.6-6-10.27-8.51a6.81,6.81,0,0,0-5-1.32c-2.46.33-4.5,2-6.36,3.56-4.64,3.81-8.55,6.49-14.82,6.53l1.13,1.13v-.5a1.15,1.15,0,0,0-.82-1.09,31.3,31.3,0,0,1-18-12c-2.74-3.55-5.71-7.66-10.69-7.51-2.68.08-4.87,1.6-7.39,2.23-5.58,1.4-9-2.65-9.49-7.93-.4-4.55,3.64-13.61.61-17.77-2.62-3.61-10.37.44-13.72.2-11.54-.79-7.68-10.8-9.81-18.13-1.57-5.39-6.41-5.25-10.34-8.07-7.31-5.26-1.84-15.12,1.63-20.87,3.65-6,6.22-12.17,5.18-19.37-.49-3.35-1.88-10.22-6.56-9.23-1.41.3-.81,2.46.6,2.17Z" transform="translate(-25.22 -23.81)"/><path class="cls-11" d="M178.38,98a15,15,0,0,1,2-3.75,5,5,0,0,1,1.26-1.47c.59-.29.31-.26.92.3a6,6,0,0,0,5.5,1.36c1.88-.4,1.09-3.29-.8-2.89-2.89.61-4-3.67-7-1.58-2.3,1.62-3.82,4.67-4.74,7.23-.66,1.82,2.24,2.6,2.89.8Z" transform="translate(-25.22 -23.81)"/><path class="cls-12" d="M237.51,93.26a25.3,25.3,0,0,0-3.71,7.44c-.58,1.85,2.31,2.64,2.89.8a23.09,23.09,0,0,1,3.41-6.73c1.14-1.56-1.46-3.06-2.59-1.51Z" transform="translate(-25.22 -23.81)"/><path class="cls-11" d="M245.14,186.19c.24-2,1.93-2.72,3.67-3.07s2.94-1.08,3.07-2.86-2.87-1.92-3,0c0-.48-.22-.17-.71-.06-.3.06-.61.09-.92.15a6.38,6.38,0,0,0-2.55,1.17,6.62,6.62,0,0,0-2.56,4.67c-.22,1.91,2.78,1.9,3,0Z" transform="translate(-25.22 -23.81)"/><path class="cls-11" d="M211.5,233.22c3.18,2.55,2.52,7.54,5.63,10.32,1.43,1.29,3.56-.82,2.12-2.12-3-2.72-2.3-7.66-5.63-10.32-1.49-1.2-3.62.91-2.12,2.12Z" transform="translate(-25.22 -23.81)"/><path class="cls-11" d="M172.53,271.8a5.08,5.08,0,0,1,3.2-5.26c1.8-.65,1-3.55-.8-2.89a8.08,8.08,0,0,0-5.4,8.15c.15,1.91,3.15,1.93,3,0Z" transform="translate(-25.22 -23.81)"/><path class="cls-11" d="M132.51,235.46a42.13,42.13,0,0,0-.18,12.78c.4,2.37,1.45,4.22,4,4.52,1.91.24,1.89-2.76,0-3-2.52-.31-1.09-12-.88-13.5.26-1.89-2.63-2.7-2.9-.8Z" transform="translate(-25.22 -23.81)"/><path class="cls-11" d="M75.58,231.56c-.37-2.36,5.17-1.24,6.4-1.32a5.9,5.9,0,0,0,4-1.74c1.34-1.39-.78-3.51-2.13-2.12-2,2.05-5.83.09-8.34,1.09a4.35,4.35,0,0,0-2.82,4.89c.3,1.9,3.19,1.09,2.89-.8Z" transform="translate(-25.22 -23.81)"/><path class="cls-11" d="M92.46,177.86a15.16,15.16,0,0,0-6.47,4c-1.45,1.55-2.87,3.92-1.42,5.93,1.12,1.55,3.73.06,2.59-1.51-.74-1,1.3-2.72,2-3.32a11.8,11.8,0,0,1,4.08-2.2c1.83-.59,1-3.49-.8-2.9Z" transform="translate(-25.22 -23.81)"/><path class="cls-11" d="M50.69,142.91c.7-2.47,1.85-5,4.79-3.91,1.49.57,3.06.71,4.22-.58s-.83-3.56-2.12-2.12c-.35.39-2.61-.67-3.15-.71a5.15,5.15,0,0,0-3,.72c-2.11,1.24-3,3.57-3.66,5.8a1.5,1.5,0,0,0,2.89.8Z" transform="translate(-25.22 -23.81)"/><path class="cls-11" d="M111.69,110.71c-2.54-3.22-5.51,2.74-6.21,4.43-1.26,3-2.06,7.83,2.43,8.27,1.92.19,1.91-2.81,0-3-1.39-.13.13-3.67.4-4.29a19.7,19.7,0,0,1,.87-1.79l.37-.63c.62-.45.63-.74,0-.87,1.19,1.52,3.3-.62,2.12-2.12Z" transform="translate(-25.22 -23.81)"/><path class="cls-11" d="M86.87,98.19l4.36-4.71c1.31-1.41-.81-3.54-2.12-2.12l-4.36,4.71c-1.31,1.42.81,3.55,2.12,2.12Z" transform="translate(-25.22 -23.81)"/><path class="cls-11" d="M148.11,60.43a17.93,17.93,0,0,0,0,13.54c.71,1.77,3.61,1,2.89-.79a15.57,15.57,0,0,1,0-12c.72-1.8-2.18-2.57-2.89-.8Z" transform="translate(-25.22 -23.81)"/><path class="cls-11" d="M210.41,65.39a41.24,41.24,0,0,0,8.67-6.47c1.39-1.35-.73-3.47-2.12-2.12a38.15,38.15,0,0,1-8.06,6c-1.69.94-.18,3.53,1.51,2.59Z" transform="translate(-25.22 -23.81)"/><path class="cls-12" d="M234.85,149.46a8,8,0,0,1,6,1.63c1.5,1.19,3.63-.92,2.12-2.13a11,11,0,0,0-8.13-2.5c-1.9.2-1.92,3.21,0,3Z" transform="translate(-25.22 -23.81)"/><path class="cls-12" d="M234.47,227.6a20.73,20.73,0,0,0,11.44-5c1.46-1.27-.67-3.38-2.12-2.12a17.19,17.19,0,0,1-9.32,4.17c-1.9.22-1.92,3.22,0,3Z" transform="translate(-25.22 -23.81)"/><path class="cls-12" d="M167.06,235.38q-5.52,3.35-11.33,6.13c-1.74.83-.22,3.42,1.52,2.59q5.82-2.79,11.32-6.13c1.65-1,.14-3.59-1.51-2.59Z" transform="translate(-25.22 -23.81)"/><path class="cls-12" d="M92.54,254a10.19,10.19,0,0,0,7.61-4.25c1.14-1.56-1.46-3.06-2.59-1.52a6.89,6.89,0,0,1-5,2.77c-1.91.14-1.93,3.15,0,3Z" transform="translate(-25.22 -23.81)"/><path class="cls-12" d="M57.43,198.11a4.42,4.42,0,0,1-.14,2.49,4.46,4.46,0,0,0,.2,2.53,2.92,2.92,0,0,0,3.59,2c1.82-.63,1-3.53-.79-2.89,0,0,.24.19.14.08a1.09,1.09,0,0,1-.22-.46,3.36,3.36,0,0,1,.17-1.4,5.5,5.5,0,0,0-.06-3.14c-.69-1.78-3.59-1-2.89.79Z" transform="translate(-25.22 -23.81)"/><path class="cls-12" d="M83.92,144.47a8,8,0,0,1-3,6.89c-1.49,1.23.64,3.34,2.12,2.12a10.83,10.83,0,0,0,3.91-9c-.12-1.92-3.12-1.93-3,0Z" transform="translate(-25.22 -23.81)"/><path class="cls-12" d="M113.08,75.15a12.82,12.82,0,0,0-9.86-6.58c-1.92-.23-1.9,2.77,0,3a9.69,9.69,0,0,1,7.27,5.1c.92,1.69,3.51.18,2.59-1.52Z" transform="translate(-25.22 -23.81)"/><path class="cls-12" d="M155.63,101.89a8.12,8.12,0,0,0,3.62,6.74c1.59,1.1,3.09-1.5,1.51-2.59a5,5,0,0,1-2.13-4.15,1.5,1.5,0,0,0-3,0Z" transform="translate(-25.22 -23.81)"/><path class="cls-12" d="M197.57,64a13.54,13.54,0,0,1,3.26-4.82c1.39-1.35-.74-3.47-2.12-2.12a16.86,16.86,0,0,0-4,6.15c-.7,1.8,2.2,2.58,2.89.79Z" transform="translate(-25.22 -23.81)"/><path class="cls-13" d="M259.53,133.43a14.94,14.94,0,0,0,3.85,4.59,1.54,1.54,0,0,0,2.12,0,1.51,1.51,0,0,0,0-2.12,13,13,0,0,1-3.38-4c-.92-1.7-3.51-.18-2.59,1.52Z" transform="translate(-25.22 -23.81)"/><path class="cls-13" d="M274.71,205.76A20.86,20.86,0,0,0,264,202.52c-1.93-.06-1.93,2.94,0,3a17.75,17.75,0,0,1,9.16,2.83c1.64,1,3.15-1.56,1.52-2.59Z" transform="translate(-25.22 -23.81)"/><path class="cls-13" d="M212.22,201.67a9,9,0,0,0,.48,7.79c.92,1.7,3.51.19,2.59-1.51a6.18,6.18,0,0,1-.18-5.48c.74-1.79-2.16-2.56-2.89-.8Z" transform="translate(-25.22 -23.81)"/><path class="cls-13" d="M121.72,275.57a12.51,12.51,0,0,0,8.78-1.87c1.61-1.06.11-3.66-1.51-2.59a9.34,9.34,0,0,1-6.47,1.57c-1.89-.27-2.71,2.62-.8,2.89Z" transform="translate(-25.22 -23.81)"/><path class="cls-13" d="M105.33,205a5.39,5.39,0,0,0-.09,7.63,1.5,1.5,0,0,0,2.12-2.12,2.36,2.36,0,0,1,.09-3.39c1.41-1.32-.72-3.44-2.12-2.12Z" transform="translate(-25.22 -23.81)"/><path class="cls-13" d="M59.85,166.17a8.3,8.3,0,0,0,6.68,6.46c1.89.3,2.7-2.59.8-2.89a5.44,5.44,0,0,1-4.59-4.36c-.38-1.89-3.27-1.09-2.89.79Z" transform="translate(-25.22 -23.81)"/><path class="cls-13" d="M73.17,119.24l-.47-6.31c-.15-1.91-3.15-1.92-3,0l.47,6.31c.15,1.91,3.15,1.92,3,0Z" transform="translate(-25.22 -23.81)"/><path class="cls-13" d="M120.61,92.73a8.15,8.15,0,0,0,6.23,3c1.93,0,1.93-3,0-3a5.28,5.28,0,0,1-4.11-2.12,1.51,1.51,0,0,0-2.12,0,1.54,1.54,0,0,0,0,2.12Z" transform="translate(-25.22 -23.81)"/><path class="cls-13" d="M176.74,67.2a14,14,0,0,1,3.09-6.13c1.27-1.45-.84-3.58-2.12-2.12a17.19,17.19,0,0,0-3.86,7.45c-.44,1.88,2.45,2.68,2.89.8Z" transform="translate(-25.22 -23.81)"/><path class="cls-13" d="M219,116.92a6.15,6.15,0,0,0,2,8.9c1.71.9,3.23-1.68,1.52-2.59a3.17,3.17,0,0,1-.95-4.8c1.18-1.53-1.42-3-2.59-1.51Z" transform="translate(-25.22 -23.81)"/><path class="cls-13" d="M248.24,82.53l13.42,2.29c1.89.32,2.7-2.57.8-2.89L249,79.63c-1.89-.32-2.7,2.57-.8,2.9Z" transform="translate(-25.22 -23.81)"/><path class="cls-14" d="M265.16,172.06a9.05,9.05,0,0,0,6.77-7.06c.35-1.89-2.54-2.7-2.89-.8a6.15,6.15,0,0,1-4.68,5c-1.87.44-1.08,3.33.8,2.89Z" transform="translate(-25.22 -23.81)"/><path class="cls-14" d="M77.91,203.72a13.32,13.32,0,0,0,9.17,7.36c1.88.42,2.68-2.47.79-2.89a10.52,10.52,0,0,1-7.37-6c-.81-1.75-3.4-.23-2.59,1.52Z" transform="translate(-25.22 -23.81)"/><path class="cls-14" d="M114.44,261.18a19.83,19.83,0,0,1,6.36-7.53c1.57-1.11.07-3.71-1.51-2.59a22.8,22.8,0,0,0-7.44,8.6c-.85,1.73,1.74,3.25,2.59,1.52Z" transform="translate(-25.22 -23.81)"/><path class="cls-14" d="M193.86,254c-.14,0-.11,0,.07,0l.31.08.15,0,.08,0a1.86,1.86,0,0,1,.7.54,1.5,1.5,0,0,0,2.12-2.12,5.15,5.15,0,0,0-3.43-1.6,1.5,1.5,0,0,0-1.5,1.5,1.54,1.54,0,0,0,1.5,1.5Z" transform="translate(-25.22 -23.81)"/><path class="cls-14" d="M119.44,120.4a9,9,0,0,0,1,7.47c1,1.63,3.63.12,2.59-1.51a6,6,0,0,1-.69-5.16c.58-1.85-2.32-2.64-2.89-.8Z" transform="translate(-25.22 -23.81)"/><path class="cls-14" d="M80.48,80.05A27.2,27.2,0,0,0,90.86,63.66c.39-1.88-2.51-2.69-2.89-.8a24.21,24.21,0,0,1-9,14.6c-1.51,1.15,0,3.76,1.51,2.59Z" transform="translate(-25.22 -23.81)"/><path class="cls-14" d="M156.11,82.94a12.72,12.72,0,0,0,9.43.46c1.82-.62,1-3.52-.79-2.89a9.68,9.68,0,0,1-7.12-.16c-1.76-.76-3.29,1.82-1.52,2.59Z" transform="translate(-25.22 -23.81)"/><path class="cls-14" d="M213.26,92.43a22.39,22.39,0,0,0,.78,7.51,1.51,1.51,0,0,0,2.9-.8,19.73,19.73,0,0,1-.68-6.71c.13-1.93-2.87-1.92-3,0Z" transform="translate(-25.22 -23.81)"/><path class="cls-14" d="M204.48,43.21A18.74,18.74,0,0,0,209,50.48a1.5,1.5,0,0,0,2.12-2.12,15.6,15.6,0,0,1-3.75-6c-.62-1.81-3.52-1-2.89.8Z" transform="translate(-25.22 -23.81)"/><path class="cls-14" d="M254.63,236.69a42.5,42.5,0,0,1,1.54-7.81c.55-1.85-2.34-2.64-2.89-.79a45.83,45.83,0,0,0-1.65,8.6c-.19,1.92,2.82,1.91,3,0Z" transform="translate(-25.22 -23.81)"/><path class="cls-14" d="M91.8,161.77l4.22,4c1.39,1.34,3.52-.78,2.12-2.12l-4.22-4c-1.39-1.34-3.51.78-2.12,2.12Z" transform="translate(-25.22 -23.81)"/><path class="cls-15" d="M250.28,121.45a10.83,10.83,0,0,1,8.7-1c1.86.55,2.65-2.34.8-2.89a13.9,13.9,0,0,0-11,1.32,1.5,1.5,0,0,0,1.52,2.59Z" transform="translate(-25.22 -23.81)"/><path class="cls-15" d="M228.42,205.25a11.91,11.91,0,0,0,10,4.45c1.92-.1,1.93-3.1,0-3a9.13,9.13,0,0,1-7.86-3.58c-1.2-1.51-3.31.63-2.12,2.13Z" transform="translate(-25.22 -23.81)"/><path class="cls-15" d="M185.33,239.07a15.22,15.22,0,0,0,2-10.23c-.26-1.91-3.15-1.1-2.89.79a11.92,11.92,0,0,1-1.74,7.92c-1,1.66,1.58,3.17,2.59,1.52Z" transform="translate(-25.22 -23.81)"/><path class="cls-15" d="M120.5,217.91a30.59,30.59,0,0,1,6.34-1.88c1.89-.35,1.09-3.24-.8-2.89a34.06,34.06,0,0,0-7.05,2.18c-1.77.75-.25,3.33,1.51,2.59Z" transform="translate(-25.22 -23.81)"/><path class="cls-15" d="M99.18,232.83a7.33,7.33,0,0,0,1.33,8.14c1.33,1.4,3.45-.72,2.13-2.12a4.2,4.2,0,0,1-.87-4.51c.76-1.75-1.83-3.28-2.59-1.51Z" transform="translate(-25.22 -23.81)"/><path class="cls-15" d="M67.73,146.74a15.12,15.12,0,0,0-9.22,2.08A1.5,1.5,0,0,0,60,151.41a12.38,12.38,0,0,1,7.71-1.67c1.92.18,1.91-2.82,0-3Z" transform="translate(-25.22 -23.81)"/><path class="cls-15" d="M97.88,122q-3-7-5.68-14.11c-.68-1.79-3.58-1-2.89.8q2.82,7.47,6,14.82c.75,1.77,3.34.24,2.59-1.51Z" transform="translate(-25.22 -23.81)"/><path class="cls-15" d="M135.1,64.54c-3.27,1.19-6.55,2.35-9.8,3.57-2,.74-3.9,1.6-4.32,3.84-.36,1.89,2.54,2.7,2.89.8s4.59-2.61,6-3.11l6.06-2.21c1.8-.66,1-3.56-.79-2.89Z" transform="translate(-25.22 -23.81)"/><path class="cls-15" d="M136.7,109.93l7.17,4.63c1.62,1,3.13-1.55,1.51-2.6l-7.17-4.62c-1.62-1-3.13,1.55-1.51,2.59Z" transform="translate(-25.22 -23.81)"/><path class="cls-15" d="M191.58,79A10.91,10.91,0,0,0,195,87.42c1.39,1.34,3.52-.78,2.12-2.12A8,8,0,0,1,194.58,79c.08-1.93-2.92-1.93-3,0Z" transform="translate(-25.22 -23.81)"/><path class="cls-15" d="M199,125a34.48,34.48,0,0,1,8.82,2.38c1.76.74,3.29-1.84,1.52-2.59a36.94,36.94,0,0,0-9.54-2.68c-1.89-.26-2.7,2.63-.8,2.89Z" transform="translate(-25.22 -23.81)"/><path class="cls-15" d="M148.52,273.71l4,0,2,0a2.11,2.11,0,0,0,1.85-.63c-1.53,1.13,0,3.74,1.52,2.59a2.63,2.63,0,0,0-.42-4.57,8.18,8.18,0,0,0-3.62-.38l-5.29,0a1.5,1.5,0,0,0,0,3Z" transform="translate(-25.22 -23.81)"/><path class="cls-15" d="M163.05,46q7.15,1.92,14.22,4.18V47.3l-1.51.43a1.5,1.5,0,0,0,.8,2.89l1.51-.43a1.51,1.51,0,0,0,0-2.89Q171,45,163.85,43.11a1.51,1.51,0,0,0-.8,2.9Z" transform="translate(-25.22 -23.81)"/><path class="cls-15" d="M229.3,49.53a7.72,7.72,0,0,0,3.2,10.35c1.71.88,3.23-1.71,1.51-2.59a4.7,4.7,0,0,1-2.12-6.24c.88-1.72-1.71-3.24-2.59-1.52Z" transform="translate(-25.22 -23.81)"/><path class="cls-15" d="M228.65,261.21c-.33,0-.05.1,0,0a2,2,0,0,1,.07-.36,4.13,4.13,0,0,1,1.36-1.3,1.51,1.51,0,0,0,0-2.12,1.53,1.53,0,0,0-2.12,0c-1.21.94-2.39,2.17-2.32,3.82a3,3,0,0,0,3,3,1.54,1.54,0,0,0,1.5-1.5,1.5,1.5,0,0,0-1.5-1.5Z" transform="translate(-25.22 -23.81)"/></g><path class="cls-16" d="M191.35,25.55c-11.9,2.75-24.85,9-26.91,22.43s9.66,20.06,21.3,21.5l-.4-3c-16,3.47-15.18,25.78-6.62,35.79,5,5.81,12.4,9,19.91,9.63,6.5.57,16.56-.15,20-6.7l-2.8-.76c-1.31,14.87,11.26,26.51,25.36,28.28,13.45,1.69,22.4-9.29,25.19-21.34h-2.89c5,12.48,18.57,14.83,30.59,13.52,1.89-.2,1.92-3.2,0-3-10.41,1.13-23.26-.19-27.7-11.31-.5-1.26-2.53-1.59-2.89,0-2.57,11.1-10.59,21.21-23.13,19-12.23-2.17-22.67-12.16-21.53-25.14a1.51,1.51,0,0,0-2.79-.76c-3.06,5.86-13.45,5.89-19.15,5a26.46,26.46,0,0,1-15.1-7.52c-7.85-8.24-10-28.69,4.37-31.81,1.8-.39,1.15-2.75-.4-2.94-11.17-1.39-21.65-8.33-17.65-21,3.28-10.39,14.35-14.82,24-17.07,1.88-.43,1.09-3.33-.79-2.89Z" transform="translate(-25.22 -23.81)"/></g><path class="cls-16" d="M45.77,91.73a24.36,24.36,0,0,0,33.86-.82l-2.51-.66C80,98.62,87,106,96.29,106.58c8.59.56,16.83-5.38,18.48-13.87l-2.51.66c8,7.92,18.72,14,30.26,11.25,11.25-2.69,15.93-12.23,16.55-23l-2.25,1.3A27.74,27.74,0,0,0,175,85.3c1.89-.38,1.09-3.27-.8-2.9a24.39,24.39,0,0,1-15.89-2.1,1.52,1.52,0,0,0-2.26,1.29c-.59,10.25-5.36,18.92-16.27,20.48-9.88,1.41-18.69-4.13-25.42-10.82a1.5,1.5,0,0,0-2.5.66,14.71,14.71,0,0,1-16.09,11.58c-7.66-.86-13.36-7-15.78-14a1.51,1.51,0,0,0-2.5-.66,21.32,21.32,0,0,1-29.62.82c-1.4-1.33-3.53.79-2.12,2.12Z" transform="translate(-25.22 -23.81)"/></g><path d="M90.07,101c-4.2,4.52-1.3,10.46,3.69,12.85,7.36,3.52,17,2.82,24.73,1.12L117,112.48c-3.67,4.47-6.9,10.91-3,16.32,4.33,6,16.11,4.17,22.43,4.22a1.5,1.5,0,0,0,0-3c-4.79,0-10,.29-14.69-.54-8.92-1.55-7-9.56-2.62-14.88a1.51,1.51,0,0,0-1.45-2.5,45.49,45.49,0,0,1-13.66,1c-3.93-.33-18.23-3.11-11.85-10,1.31-1.41-.8-3.54-2.12-2.12Z" transform="translate(-25.22 -23.81)"/><path d="M191.61,133.16c8.23.71,16.5.29,22.07-6.59,5.28-6.52,6.78-15.13,5.28-23.22-.35-1.9-3.24-1.1-2.89.79,1.38,7.46-.22,15.94-5.6,21.59-5,5.22-12.22,5-18.86,4.43-1.92-.17-1.91,2.83,0,3Z" transform="translate(-25.22 -23.81)"/></g><path d="M25.42,175.11c3.5,6.47,12.19,6.63,18.66,6,8.67-.89,11.78-6.9,13.51-14.75l-2.74.36c3.82,8.19,12.75,13.46,21.83,12.13,9.65-1.42,16.56-9.89,17.39-19.35.15-1.75-2.45-1.93-2.95-.39-2.6,8,4,14.15,11.33,15.81,5.62,1.28,14.76,2,16.93-4.85.58-1.84-2.31-2.63-2.89-.8-1.55,4.9-9.64,3.58-13.24,2.76-5.69-1.3-11.34-5.67-9.24-12.13l-2.94-.4c-1.61,18.35-26,22.12-33.63,5.71a1.51,1.51,0,0,0-2.74.36c-1.56,7.05-4.18,12.14-12.15,12.65-5,.32-11.84.39-14.54-4.6-.92-1.7-3.52-.18-2.59,1.52Z" transform="translate(-25.22 -23.81)"/></g><path d="M288.59,211.55c-1.74.7-4.47,2.07-6.37,1.71-3.65-.7-5-3.52-5.25-6.82a77.49,77.49,0,0,1,.24-11.8,1.51,1.51,0,0,0-2.79-.76c-2.21,4.7-7.61,7.62-12.75,5.92-5.73-1.9-7.78-9.15-5.33-14.24.68-1.42-1.22-3.23-2.36-1.82-3.5,4.36-9.19,6.75-14.42,3.75s-5.21-8.71-5.05-14a1.52,1.52,0,0,0-2.8-.76,15.88,15.88,0,0,1-8.17,8c-3.11,1.33-13.87,3.16-12.69-3.77.32-1.88-2.57-2.7-2.89-.79-1.11,6.46,5.14,9.17,10.72,8.82A18.85,18.85,0,0,0,234.3,174.3l-2.79-.76c-.22,6.91.7,14,7.75,17.15,6.16,2.74,12.78.23,16.84-4.82l-2.35-1.82c-3.07,6.36-1.05,14.77,5.61,18S274,201.79,277,195.4l-2.8-.76c-.39,5.47-1.84,14.14,2,18.87,3.38,4.16,8.91,2.66,13.17.94,1.77-.72,1-3.62-.79-2.9Z" transform="translate(-25.22 -23.81)"/></g><path d="M177.35,211.57a9.35,9.35,0,0,0,7.14,12.53l.4-2.95c-8.89-.19-13.66,3.76-13.78,13-.12,9.43,6.41,12.93,14.86,13.93l-.76-2.8c-6.57,4.62-14.83,11.4-12.05,20.55s13.89,8.47,21.37,7.2l-1.69-2.2c-2.25,4.93-3.18,9.55.24,14.24,3.24,4.43,8.51,6.3,13.51,8,1.83.62,2.62-2.28.8-2.89-8.57-2.9-16.63-7.57-12-17.83a1.52,1.52,0,0,0-1.7-2.2c-6.24,1.05-17.3,2.06-18-7-.53-7.08,5.84-11.69,11-15.29a1.51,1.51,0,0,0-.76-2.79c-6.61-.78-11.93-3.44-11.86-10.93a11.19,11.19,0,0,1,2.29-7.44c2.2-2.72,5.19-2.63,8.49-2.56,1.65,0,2.1-2.65.4-2.94a6.43,6.43,0,0,1-5-8.84c.69-1.81-2.21-2.59-2.89-.8Z" transform="translate(-25.22 -23.81)"/></g><path d="M67.83,260.15c5,.63,10.83,1.1,14.84-2.52s4-9.5,2.71-14.48l-2.51,1.46c5.42,5.17,14.51,5.27,21.11,2.19,3.47-1.62,3.9-4.83,4.53-8.36a68.58,68.58,0,0,0,.81-16.93l-2.56,1.06c6,5.53,14.3,6.23,21.63,2.92,8.93-4,11.1-10.42,10.15-19.75-.19-1.9-3.19-1.92-3,0,.29,2.83.66,5.86,0,8.66-.9,3.75-3.92,6.09-7.18,7.78-6.37,3.32-14,3.3-19.47-1.73a1.52,1.52,0,0,0-2.56,1.06c.43,6.08,1.42,16.7-2.93,21.3s-14,3.86-18.39-.32A1.51,1.51,0,0,0,82.49,244c1.24,4.88,1.19,10.65-4.3,12.86-3.23,1.3-7,.76-10.36.34-1.91-.23-1.9,2.77,0,3Z" transform="translate(-25.22 -23.81)"/></g></g></svg>