<svg xmlns="http://www.w3.org/2000/svg" viewBox="0 0 290.93 561.49"><defs><style>.cls-1,.cls-2{fill:#fbda03;}.cls-2,.cls-3{isolation:isolate;}.cls-3,.cls-4{fill:none;stroke:#000;stroke-miterlimit:10;stroke-width:4px;}</style></defs><title>Hand5</title><g id="Layer_2" data-name="Layer 2"><g id="Layer_2-2" data-name="Layer 2"><path class="cls-1" d="M201.21,108.6l10.25-16L196.31,94l-7.79-24.52-59.78-20-5-.69L111.72,82.19s-9.91-1.41-10.45-1.58S72.53,69.7,72.53,69.7l11.2,21,72.21,11Z"/><path class="cls-2" d="M186.61,71.64l-4.67-47.95c-4.67-47.95-53.37-7.94-53.37-7.94l-3.29,40.36Z"/><path class="cls-2" d="M180.62,97.34c48.18,13.23,46.61-56.63,46.61-56.63s23.38-41.11,44.4-6.15c57.9,96.3-44.1,220-44.1,220L216,559.49H2.56l70.59-305s-57.4-104.93-55-126.47S14.6,38.42,44.67,42.39s21.9,23.67,21.9,23.67S87.45,79,98.57,84.51Z"/><path class="cls-3" d="M68.75,61.1a16.3,16.3,0,0,0,2.17,5.32c2,3.55,34.1,17.74,40.8,15.77S129,24.67,129,24.67l1-6.32s45.26-41.61,53.37,7.94c0,0,4.48,67.33,15.52,67.73s19.91-7.76,19.91-7.76"/><path class="cls-3" d="M82.48,116.07S69,97.49,68.42,77.64c0-.83,0-1.66,0-2.49.53-20.75-3.53-34.8-21.8-34.48s-27.76,27.38-27,34.52S16.38,128,18.15,134s50.14,119.56,55,120.49-70.59,305-70.59,305H216s14.35-300,11.49-305,96.08-106.3,48.38-208.72c-23.47-50.39-42.76-15.28-48.68-5.09,0,0,8.94,53.88-49.44,77.34"/><path class="cls-4" d="M133.8,226.52S111,175,162.26,156.28"/></g></g></svg>